<?xml version="1.0" encoding="utf-8"?>
<!-- Generator: Adobe Illustrator 19.1.0, SVG Export Plug-In . SVG Version: 6.00 Build 0)  -->
<!DOCTYPE svg PUBLIC "-//W3C//DTD SVG 1.1//EN" "http://www.w3.org/Graphics/SVG/1.1/DTD/svg11.dtd">
<svg version="1.1" xmlns="http://www.w3.org/2000/svg" xmlns:xlink="http://www.w3.org/1999/xlink" x="0px" y="0px"
	 viewBox="0 0 750 326.2" style="enable-background:new 0 0 750 326.2;" xml:space="preserve">
<style type="text/css">
	.st0{fill:none;stroke:#000000;stroke-miterlimit:10;}
	.st1{fill:none;stroke:#000000;stroke-width:0.7087;stroke-linecap:round;stroke-linejoin:round;stroke-miterlimit:10;}
	.st2{fill:none;stroke:#7FFFFF;stroke-width:0.7087;stroke-linecap:round;stroke-linejoin:round;stroke-miterlimit:10;}
	.st3{fill:none;stroke:#FF7F00;stroke-width:0.5102;stroke-linecap:round;stroke-linejoin:round;stroke-miterlimit:10;}
	.st4{fill:none;stroke:#FFBF7F;stroke-width:0.7087;stroke-linecap:round;stroke-linejoin:round;stroke-miterlimit:10;}
	.st5{fill:none;stroke:#FFFF00;stroke-width:0.5102;stroke-linecap:round;stroke-linejoin:round;stroke-miterlimit:10;}
	
		.st6{fill:none;stroke:#FF7F7F;stroke-width:0.7087;stroke-linecap:round;stroke-linejoin:round;stroke-miterlimit:10;stroke-dasharray:2.3789,1.1894;}
	.st7{fill:none;stroke:#000000;stroke-width:0;stroke-linecap:round;stroke-linejoin:round;stroke-miterlimit:10;}
	.st8{fill-rule:evenodd;clip-rule:evenodd;fill:url(#);}
	.st9{fill:none;stroke:#00CCCC;stroke-width:0.9921;stroke-linecap:round;stroke-linejoin:round;stroke-miterlimit:10;}
	.st10{fill:none;stroke:#FF7F7F;stroke-width:0.7087;stroke-linecap:round;stroke-linejoin:round;stroke-miterlimit:10;}
	.st11{fill:none;stroke:#003FFF;stroke-width:0.7087;stroke-linecap:round;stroke-linejoin:round;stroke-miterlimit:10;}
	
		.st12{fill:none;stroke:#6600CC;stroke-width:0.5102;stroke-linecap:round;stroke-linejoin:round;stroke-miterlimit:10;stroke-dasharray:2.3789,1.1894;}
	.st13{fill:none;stroke:#6600CC;stroke-width:0.9921;stroke-linecap:round;stroke-linejoin:round;stroke-miterlimit:10;}
	
		.st14{fill:none;stroke:#FF7F00;stroke-width:0.5102;stroke-linecap:round;stroke-linejoin:round;stroke-miterlimit:10;stroke-dasharray:2.3789,1.1894;}
	.st15{fill:none;stroke:#CC6600;stroke-width:0.9921;stroke-linecap:round;stroke-linejoin:round;stroke-miterlimit:10;}
	
		.st16{fill:none;stroke:#7FFFFF;stroke-width:0.7087;stroke-linecap:round;stroke-linejoin:round;stroke-miterlimit:10;stroke-dasharray:2.3789,1.1894;}
	
		.st17{fill:none;stroke:#CC0000;stroke-width:0.5102;stroke-linecap:round;stroke-linejoin:round;stroke-miterlimit:10;stroke-dasharray:2.3789,1.1894;}
	.st18{fill:none;stroke:#CC0000;stroke-width:0.9921;stroke-linecap:round;stroke-linejoin:round;stroke-miterlimit:10;}
	.st19{fill-rule:evenodd;clip-rule:evenodd;fill:#5B5B5B;}
	.st20{fill:none;stroke:#66CC99;stroke-width:1.4173;stroke-linecap:round;stroke-linejoin:round;stroke-miterlimit:10;}
	.st21{fill:none;stroke:#00CC66;stroke-width:0.7087;stroke-linecap:round;stroke-linejoin:round;stroke-miterlimit:10;}
	.st22{fill:none;stroke:#CCCC00;stroke-width:0.9921;stroke-linecap:round;stroke-linejoin:round;stroke-miterlimit:10;}
	
		.st23{fill:none;stroke:#FFBF7F;stroke-width:0.7087;stroke-linecap:round;stroke-linejoin:round;stroke-miterlimit:10;stroke-dasharray:2.3789,1.1894;}
	.st24{fill:none;stroke:#7FBFFF;stroke-width:0.7087;stroke-linecap:round;stroke-linejoin:round;stroke-miterlimit:10;}
	.st25{display:none;}
	.st26{display:inline;}
	.st27{fill:none;stroke:#FF7FFF;stroke-width:0.7087;stroke-linecap:round;stroke-linejoin:round;stroke-miterlimit:10;}
	.st28{fill:#FF7FFF;}
</style>
<g id="A-Sect-Fine">
	<g id="LINE_676_">
		<line class="st0" x1="276.9" y1="146.3" x2="276.9" y2="106.2"/>
	</g>
	<g id="LINE_677_">
		<line class="st0" x1="276.9" y1="174.8" x2="276.9" y2="169.1"/>
	</g>
	<g id="LINE_678_">
		<line class="st0" x1="276.9" y1="166" x2="276.9" y2="158.6"/>
	</g>
	<g id="LINE_679_">
		<line class="st0" x1="445.4" y1="143.8" x2="445.4" y2="115.2"/>
	</g>
	<g id="LINE_680_">
		<line class="st0" x1="469.2" y1="143.8" x2="469.2" y2="115.2"/>
	</g>
	<g id="LINE_681_">
		<line class="st0" x1="486.2" y1="146.3" x2="486.2" y2="106.2"/>
	</g>
	<g id="LINE_682_">
		<line class="st0" x1="486.2" y1="174.8" x2="486.2" y2="158.6"/>
	</g>
	<g id="LINE_683_">
		<line class="st0" x1="276.9" y1="264.3" x2="276.9" y2="178.7"/>
	</g>
	<g id="LINE_684_">
		<line class="st0" x1="454.9" y1="229.4" x2="454.9" y2="200.9"/>
	</g>
	<g id="LINE_685_">
		<line class="st0" x1="473.9" y1="229.4" x2="473.9" y2="200.9"/>
	</g>
	<g id="LINE_686_">
		<line class="st0" x1="486.2" y1="264.3" x2="486.2" y2="178.7"/>
	</g>
	<g id="LINE_687_">
		<line class="st0" x1="543.3" y1="264.3" x2="543.3" y2="158.6"/>
	</g>
	<g id="LINE_688_">
		<line class="st0" x1="548.5" y1="237.3" x2="548.5" y2="189.8"/>
	</g>
	<g id="LINE_689_">
		<line class="st0" x1="548.5" y1="178.7" x2="548.5" y2="166.8"/>
	</g>
	<g id="LINE_690_">
		<line class="st0" x1="563.1" y1="237.3" x2="563.1" y2="189.8"/>
	</g>
	<g id="LINE_691_">
		<line class="st0" x1="563.1" y1="178.7" x2="563.1" y2="158.6"/>
	</g>
	<g id="LINE_692_">
		<line class="st0" x1="564.7" y1="237.3" x2="564.7" y2="189.8"/>
	</g>
	<g id="LINE_693_">
		<line class="st0" x1="564.7" y1="178.7" x2="564.7" y2="158.6"/>
	</g>
	<g id="LINE_694_">
		<line class="st0" x1="579.4" y1="237.3" x2="579.4" y2="189.8"/>
	</g>
	<g id="LINE_695_">
		<line class="st0" x1="579.4" y1="178.7" x2="579.4" y2="158.6"/>
	</g>
	<g id="LINE_696_">
		<line class="st0" x1="581" y1="237.3" x2="581" y2="189.8"/>
	</g>
	<g id="LINE_697_">
		<line class="st0" x1="581" y1="178.7" x2="581" y2="158.6"/>
	</g>
	<g id="LINE_698_">
		<line class="st0" x1="595.6" y1="237.3" x2="595.6" y2="189.8"/>
	</g>
	<g id="LINE_699_">
		<line class="st0" x1="595.6" y1="178.7" x2="595.6" y2="158.6"/>
	</g>
	<g id="LINE_700_">
		<line class="st0" x1="600.4" y1="264.3" x2="600.4" y2="158.6"/>
	</g>
	<g id="LINE_701_">
		<line class="st0" x1="67.6" y1="273.8" x2="67.6" y2="187.1"/>
	</g>
	<g id="LINE_702_">
		<line class="st0" x1="445.4" y1="143.8" x2="469.2" y2="143.8"/>
	</g>
	<g id="LINE_703_">
		<line class="st0" x1="445.4" y1="115.2" x2="469.2" y2="115.2"/>
	</g>
	<g id="LINE_704_">
		<line class="st0" x1="276.9" y1="264.3" x2="486.2" y2="264.3"/>
	</g>
	<g id="LINE_705_">
		<line class="st0" x1="454.9" y1="229.4" x2="473.9" y2="229.4"/>
	</g>
	<g id="LINE_706_">
		<line class="st0" x1="454.9" y1="200.9" x2="473.9" y2="200.9"/>
	</g>
	<g id="LINE_707_">
		<line class="st0" x1="548.5" y1="237.3" x2="563.1" y2="237.3"/>
	</g>
	<g id="LINE_708_">
		<line class="st0" x1="548.5" y1="189.8" x2="563.1" y2="189.8"/>
	</g>
	<g id="LINE_709_">
		<line class="st0" x1="548.5" y1="178.7" x2="563.1" y2="178.7"/>
	</g>
	<g id="LINE_710_">
		<line class="st0" x1="564.7" y1="237.3" x2="579.4" y2="237.3"/>
	</g>
	<g id="LINE_711_">
		<line class="st0" x1="564.7" y1="189.8" x2="579.4" y2="189.8"/>
	</g>
	<g id="LINE_712_">
		<line class="st0" x1="564.7" y1="178.7" x2="579.4" y2="178.7"/>
	</g>
	<g id="LINE_713_">
		<line class="st0" x1="581" y1="237.3" x2="595.6" y2="237.3"/>
	</g>
	<g id="LINE_714_">
		<line class="st0" x1="581" y1="189.8" x2="595.6" y2="189.8"/>
	</g>
	<g id="LINE_715_">
		<line class="st0" x1="581" y1="178.7" x2="595.6" y2="178.7"/>
	</g>
	<g id="LINE_716_">
		<line class="st0" x1="67.6" y1="273.8" x2="276.9" y2="273.8"/>
	</g>
	<g id="LINE_717_">
		<line class="st0" x1="548.5" y1="166.8" x2="555.7" y2="158.6"/>
	</g>
</g>
<g id="A-Sect-Thin">
	<g id="LINE_718_">
		<line class="st1" x1="447" y1="142.2" x2="447" y2="116.8"/>
	</g>
	<g id="LINE_719_">
		<line class="st1" x1="467.6" y1="142.2" x2="467.6" y2="116.8"/>
	</g>
	<g id="LINE_720_">
		<line class="st1" x1="447.8" y1="141.4" x2="447.8" y2="117.6"/>
	</g>
	<g id="LINE_721_">
		<line class="st1" x1="466.8" y1="141.4" x2="466.8" y2="117.6"/>
	</g>
	<g id="LINE_722_">
		<line class="st1" x1="581.5" y1="235.8" x2="581.5" y2="191.3"/>
	</g>
	<g id="LINE_723_">
		<line class="st1" x1="594.7" y1="235.8" x2="594.7" y2="191.3"/>
	</g>
	<g id="LINE_724_">
		<line class="st1" x1="595.4" y1="237.3" x2="595.4" y2="189.8"/>
	</g>
	<g id="LINE_725_">
		<line class="st1" x1="593.3" y1="235" x2="593.3" y2="192.1"/>
	</g>
	<g id="LINE_726_">
		<line class="st1" x1="593.7" y1="235.8" x2="593.7" y2="191.3"/>
	</g>
	<g id="LINE_727_">
		<line class="st1" x1="549" y1="235.8" x2="549" y2="191.3"/>
	</g>
	<g id="LINE_728_">
		<line class="st1" x1="562.3" y1="235.8" x2="562.3" y2="191.3"/>
	</g>
	<g id="LINE_729_">
		<line class="st1" x1="562.9" y1="237.3" x2="562.9" y2="189.8"/>
	</g>
	<g id="LINE_730_">
		<line class="st1" x1="560.9" y1="235" x2="560.9" y2="192.1"/>
	</g>
	<g id="LINE_731_">
		<line class="st1" x1="561.2" y1="235.8" x2="561.2" y2="191.3"/>
	</g>
	<g id="LINE_732_">
		<line class="st1" x1="565.2" y1="235.8" x2="565.2" y2="191.3"/>
	</g>
	<g id="LINE_733_">
		<line class="st1" x1="578.5" y1="235.8" x2="578.5" y2="191.3"/>
	</g>
	<g id="LINE_734_">
		<line class="st1" x1="579.2" y1="237.3" x2="579.2" y2="189.8"/>
	</g>
	<g id="LINE_735_">
		<line class="st1" x1="577.1" y1="235" x2="577.1" y2="192.1"/>
	</g>
	<g id="LINE_736_">
		<line class="st1" x1="577.4" y1="235.8" x2="577.4" y2="191.3"/>
	</g>
	<g id="LINE_737_">
		<line class="st1" x1="456.5" y1="227.8" x2="456.5" y2="202.4"/>
	</g>
	<g id="LINE_738_">
		<line class="st1" x1="472.4" y1="227.8" x2="472.4" y2="202.4"/>
	</g>
	<g id="LINE_739_">
		<line class="st1" x1="457.3" y1="214.7" x2="457.3" y2="203.2"/>
	</g>
	<g id="LINE_740_">
		<line class="st1" x1="471.6" y1="214.7" x2="471.6" y2="203.2"/>
	</g>
	<g id="LINE_741_">
		<line class="st1" x1="457.3" y1="227" x2="457.3" y2="215.5"/>
	</g>
	<g id="LINE_742_">
		<line class="st1" x1="471.6" y1="227" x2="471.6" y2="215.5"/>
	</g>
	<g id="LINE_743_">
		<line class="st1" x1="581.5" y1="177.1" x2="581.5" y2="158.6"/>
	</g>
	<g id="LINE_744_">
		<line class="st1" x1="594.7" y1="177.1" x2="594.7" y2="158.6"/>
	</g>
	<g id="LINE_745_">
		<line class="st1" x1="595.4" y1="178.7" x2="595.4" y2="158.6"/>
	</g>
	<g id="LINE_746_">
		<line class="st1" x1="593.3" y1="176.3" x2="593.3" y2="158.6"/>
	</g>
	<g id="LINE_747_">
		<line class="st1" x1="593.7" y1="177.1" x2="593.7" y2="158.6"/>
	</g>
	<g id="LINE_748_">
		<line class="st1" x1="565.2" y1="177.1" x2="565.2" y2="158.6"/>
	</g>
	<g id="LINE_749_">
		<line class="st1" x1="578.5" y1="177.1" x2="578.5" y2="158.6"/>
	</g>
	<g id="LINE_750_">
		<line class="st1" x1="579.2" y1="178.7" x2="579.2" y2="158.6"/>
	</g>
	<g id="LINE_751_">
		<line class="st1" x1="577.1" y1="176.3" x2="577.1" y2="158.6"/>
	</g>
	<g id="LINE_752_">
		<line class="st1" x1="577.4" y1="177.1" x2="577.4" y2="158.6"/>
	</g>
	<g id="LINE_753_">
		<line class="st1" x1="549" y1="177.1" x2="549" y2="167.8"/>
	</g>
	<g id="LINE_754_">
		<line class="st1" x1="562.3" y1="177.1" x2="562.3" y2="158.6"/>
	</g>
	<g id="LINE_755_">
		<line class="st1" x1="562.9" y1="178.7" x2="562.9" y2="158.6"/>
	</g>
	<g id="LINE_756_">
		<line class="st1" x1="560.9" y1="176.3" x2="560.9" y2="158.6"/>
	</g>
	<g id="LINE_757_">
		<line class="st1" x1="561.2" y1="177.1" x2="561.2" y2="158.6"/>
	</g>
	<g id="LINE_758_">
		<line class="st1" x1="447" y1="142.2" x2="467.6" y2="142.2"/>
	</g>
	<g id="LINE_759_">
		<line class="st1" x1="447" y1="116.8" x2="467.6" y2="116.8"/>
	</g>
	<g id="LINE_760_">
		<line class="st1" x1="447.8" y1="141.4" x2="466.8" y2="141.4"/>
	</g>
	<g id="LINE_761_">
		<line class="st1" x1="447.8" y1="117.6" x2="466.8" y2="117.6"/>
	</g>
	<g id="LINE_762_">
		<line class="st1" x1="581.5" y1="235.8" x2="594.7" y2="235.8"/>
	</g>
	<g id="LINE_763_">
		<line class="st1" x1="581.5" y1="191.3" x2="594.7" y2="191.3"/>
	</g>
	<g id="LINE_764_">
		<line class="st1" x1="581.5" y1="235" x2="593.3" y2="235"/>
	</g>
	<g id="LINE_765_">
		<line class="st1" x1="581.5" y1="192.1" x2="593.3" y2="192.1"/>
	</g>
	<g id="LINE_766_">
		<line class="st1" x1="549" y1="235.8" x2="562.3" y2="235.8"/>
	</g>
	<g id="LINE_767_">
		<line class="st1" x1="549" y1="191.3" x2="562.3" y2="191.3"/>
	</g>
	<g id="LINE_768_">
		<line class="st1" x1="549" y1="235" x2="560.9" y2="235"/>
	</g>
	<g id="LINE_769_">
		<line class="st1" x1="549" y1="192.1" x2="560.9" y2="192.1"/>
	</g>
	<g id="LINE_770_">
		<line class="st1" x1="565.2" y1="235.8" x2="578.5" y2="235.8"/>
	</g>
	<g id="LINE_771_">
		<line class="st1" x1="565.2" y1="191.3" x2="578.5" y2="191.3"/>
	</g>
	<g id="LINE_772_">
		<line class="st1" x1="565.2" y1="235" x2="577.1" y2="235"/>
	</g>
	<g id="LINE_773_">
		<line class="st1" x1="565.2" y1="192.1" x2="577.1" y2="192.1"/>
	</g>
	<g id="LINE_774_">
		<line class="st1" x1="456.5" y1="202.4" x2="472.4" y2="202.4"/>
	</g>
	<g id="LINE_775_">
		<line class="st1" x1="456.5" y1="227.8" x2="472.4" y2="227.8"/>
	</g>
	<g id="LINE_776_">
		<line class="st1" x1="456.5" y1="215.5" x2="472.4" y2="215.5"/>
	</g>
	<g id="LINE_777_">
		<line class="st1" x1="457.3" y1="203.2" x2="471.6" y2="203.2"/>
	</g>
	<g id="LINE_778_">
		<line class="st1" x1="457.3" y1="214.7" x2="471.6" y2="214.7"/>
	</g>
	<g id="LINE_779_">
		<line class="st1" x1="457.3" y1="227" x2="471.6" y2="227"/>
	</g>
	<g id="LINE_780_">
		<line class="st1" x1="581.5" y1="177.1" x2="594.7" y2="177.1"/>
	</g>
	<g id="LINE_781_">
		<line class="st1" x1="581.5" y1="176.3" x2="593.3" y2="176.3"/>
	</g>
	<g id="LINE_782_">
		<line class="st1" x1="565.2" y1="177.1" x2="578.5" y2="177.1"/>
	</g>
	<g id="LINE_783_">
		<line class="st1" x1="565.2" y1="176.3" x2="577.1" y2="176.3"/>
	</g>
	<g id="LINE_784_">
		<line class="st1" x1="549" y1="177.1" x2="562.3" y2="177.1"/>
	</g>
	<g id="LINE_785_">
		<line class="st1" x1="549" y1="176.3" x2="560.9" y2="176.3"/>
	</g>
	<g id="LINE_786_">
		<line class="st1" x1="549" y1="167.8" x2="557" y2="158.6"/>
	</g>
	<g id="LINE_787_">
		<line class="st1" x1="264.2" y1="106.2" x2="264.2" y2="63.3"/>
	</g>
	<g id="LINE_788_">
		<line class="st1" x1="498.9" y1="106.2" x2="498.9" y2="63.3"/>
	</g>
	<g id="LINE_789_">
		<line class="st1" x1="200.8" y1="272.2" x2="200.8" y2="188.2"/>
	</g>
	<g id="LINE_790_">
		<line class="st1" x1="205.5" y1="264.3" x2="205.5" y2="188.2"/>
	</g>
	<g id="LINE_791_">
		<line class="st1" x1="562.4" y1="272.2" x2="562.4" y2="264.3"/>
	</g>
	<g id="LINE_792_">
		<line class="st1" x1="629" y1="272.2" x2="629" y2="264.3"/>
	</g>
	<g id="LINE_793_">
		<line class="st1" x1="705.1" y1="272.2" x2="705.1" y2="264.3"/>
	</g>
	<g id="LINE_794_">
		<line class="st1" x1="276.9" y1="273.8" x2="276.9" y2="264.3"/>
	</g>
	<g id="LINE_795_">
		<line class="st1" x1="486.2" y1="273.8" x2="486.2" y2="264.3"/>
	</g>
	<g id="LINE_796_">
		<line class="st1" x1="543.3" y1="273.8" x2="543.3" y2="272.2"/>
	</g>
	<g id="LINE_797_">
		<line class="st1" x1="600.4" y1="273.8" x2="600.4" y2="272.2"/>
	</g>
	<g id="LINE_798_">
		<line class="st1" x1="54.9" y1="187.1" x2="54.9" y2="99.4"/>
	</g>
	<g id="LINE_799_">
		<line class="st1" x1="381.6" y1="108.9" x2="381.6" y2="105.1"/>
	</g>
	<g id="LINE_800_">
		<line class="st1" x1="264.2" y1="158.6" x2="264.2" y2="106.2"/>
	</g>
	<g id="LINE_801_">
		<line class="st1" x1="613.1" y1="158.6" x2="613.1" y2="63.8"/>
	</g>
	<g id="LINE_802_">
		<line class="st1" x1="181.7" y1="192.9" x2="181.7" y2="189.8"/>
	</g>
	<g id="LINE_803_">
		<line class="st1" x1="276.9" y1="169.1" x2="276.9" y2="166"/>
	</g>
	<g id="LINE_804_">
		<line class="st1" x1="264.2" y1="63.3" x2="498.9" y2="63.3"/>
	</g>
	<g id="LINE_805_">
		<line class="st1" x1="264.2" y1="106.2" x2="379.8" y2="106.2"/>
	</g>
	<g id="LINE_806_">
		<line class="st1" x1="383.3" y1="106.2" x2="498.9" y2="106.2"/>
	</g>
	<g id="LINE_807_">
		<line class="st1" x1="264.2" y1="103.1" x2="498.9" y2="103.1"/>
	</g>
	<g id="LINE_808_">
		<line class="st1" x1="200.8" y1="188.2" x2="205.5" y2="188.2"/>
	</g>
	<g id="LINE_809_">
		<line class="st1" x1="200.8" y1="272.2" x2="276.9" y2="272.2"/>
	</g>
	<g id="LINE_810_">
		<line class="st1" x1="200.8" y1="264.3" x2="276.9" y2="264.3"/>
	</g>
	<g id="LINE_811_">
		<line class="st1" x1="486.2" y1="272.2" x2="705.1" y2="272.2"/>
	</g>
	<g id="LINE_812_">
		<line class="st1" x1="486.2" y1="264.3" x2="705.1" y2="264.3"/>
	</g>
	<g id="LINE_813_">
		<line class="st1" x1="276.9" y1="273.8" x2="600.4" y2="273.8"/>
	</g>
	<g id="LINE_814_">
		<line class="st1" x1="54.9" y1="187.1" x2="192.3" y2="187.1"/>
	</g>
	<g id="LINE_815_">
		<line class="st1" x1="205" y1="187.1" x2="258.5" y2="187.1"/>
	</g>
	<g id="LINE_816_">
		<line class="st1" x1="264.2" y1="187.1" x2="276.9" y2="187.1"/>
	</g>
	<g id="LINE_817_">
		<line class="st1" x1="54.9" y1="99.4" x2="264.2" y2="99.4"/>
	</g>
	<g id="LINE_818_">
		<line class="st1" x1="54.9" y1="183.9" x2="205" y2="183.9"/>
	</g>
	<g id="LINE_819_">
		<line class="st1" x1="217.7" y1="183.9" x2="263.3" y2="183.9"/>
	</g>
	<g id="LINE_820_">
		<line class="st1" x1="269" y1="183.9" x2="276.9" y2="183.9"/>
	</g>
	<g id="LINE_821_">
		<line class="st1" x1="498.9" y1="63.8" x2="613.1" y2="63.8"/>
	</g>
	<g id="LINE_822_">
		<line class="st1" x1="264.2" y1="158.6" x2="301.3" y2="158.6"/>
	</g>
	<g id="LINE_823_">
		<line class="st1" x1="461.8" y1="158.6" x2="613.1" y2="158.6"/>
	</g>
	<g id="LINE_824_">
		<line class="st1" x1="264.2" y1="155.9" x2="305.3" y2="155.9"/>
	</g>
	<g id="LINE_825_">
		<line class="st1" x1="457.9" y1="155.9" x2="613.1" y2="155.9"/>
	</g>
	<g id="LINE_826_">
		<line class="st1" x1="256.1" y1="188.7" x2="262.5" y2="184.5"/>
	</g>
	<g id="LINE_827_">
		<line class="st1" x1="257.9" y1="191.3" x2="381.6" y2="108.9"/>
	</g>
	<g id="LINE_828_">
		<line class="st1" x1="381.6" y1="108.9" x2="498.9" y2="187.1"/>
	</g>
	<g id="LINE_829_">
		<line class="st1" x1="381.6" y1="105.1" x2="500.7" y2="184.5"/>
	</g>
	<g id="LINE_830_">
		<line class="st1" x1="262.5" y1="184.5" x2="381.6" y2="105.1"/>
	</g>
	<g id="LINE_831_">
		<line class="st1" x1="181.7" y1="192.9" x2="276.9" y2="169.1"/>
	</g>
	<g id="LINE_832_">
		<line class="st1" x1="181.7" y1="189.8" x2="276.9" y2="166"/>
	</g>
	<g id="LINE_833_">
		<line class="st1" x1="257.9" y1="191.3" x2="256.1" y2="188.7"/>
	</g>
	<g id="LINE_834_">
		<line class="st1" x1="498.9" y1="187.1" x2="500.7" y2="184.5"/>
	</g>
	<g id="LINE_836_">
		<line class="st1" x1="592.7" y1="235" x2="592.7" y2="192.1"/>
	</g>
	<g id="LINE_837_">
		<line class="st1" x1="560.2" y1="235" x2="560.2" y2="192.1"/>
	</g>
	<g id="LINE_838_">
		<line class="st1" x1="576.5" y1="235" x2="576.5" y2="192.1"/>
	</g>
	<g id="LINE_839_">
		<line class="st1" x1="592.7" y1="176.3" x2="592.7" y2="158.6"/>
	</g>
	<g id="LINE_840_">
		<line class="st1" x1="576.5" y1="176.3" x2="576.5" y2="158.6"/>
	</g>
	<g id="LINE_841_">
		<line class="st1" x1="560.2" y1="176.3" x2="560.2" y2="158.6"/>
	</g>
	<g id="LINE_850_">
		<line class="st1" x1="64.8" y1="273.9" x2="54.5" y2="273.9"/>
	</g>
	<g id="LINE_851_">
		<line class="st1" x1="54.5" y1="273.9" x2="97.4" y2="273.9"/>
	</g>
</g>
<g id="A-Elev">
</g>
<g id="_x30_">
</g>
<g id="G-Anno-Ttlb">
</g>
<g id="A-Slab">
</g>
<g id="A-Flor-Hral">
</g>
<g id="A-Flor-Strs">
</g>
<g id="A-Roof">
</g>
<g id="A-Roof-Slab">
</g>
<g id="A-Wall">
</g>
<g id="S-Cols">
</g>
<g id="A-Door">
</g>
<g id="A-Glaz">
</g>
<g id="A-Flor-Case">
</g>
<g id="A-Flor-Appl">
</g>
<g id="P-Flor-FixtPfix">
</g>
<g id="text_title">
</g>
<g id="logo">
</g>
<g id="A-Anno-Titl">
</g>
<g id="G-Anno-Nplt">
</g>
<g id="A-Anno-Dims" class="st25">
</g>
</svg>
