<?xml version="1.0" encoding="utf-8"?>
<!-- Generator: Adobe Illustrator 19.1.0, SVG Export Plug-In . SVG Version: 6.00 Build 0)  -->
<!DOCTYPE svg PUBLIC "-//W3C//DTD SVG 1.1//EN" "http://www.w3.org/Graphics/SVG/1.1/DTD/svg11.dtd">
<svg version="1.1" xmlns="http://www.w3.org/2000/svg" xmlns:xlink="http://www.w3.org/1999/xlink" x="0px" y="0px"
	 viewBox="0 0 886.5 335.2" style="enable-background:new 0 0 886.5 335.2;" xml:space="preserve">
<style type="text/css">
	.st0{fill:none;stroke:#000000;stroke-miterlimit:10;}
	.st1{fill:none;stroke:#000000;stroke-width:0.7087;stroke-linecap:round;stroke-linejoin:round;stroke-miterlimit:10;}
	.st2{fill:none;stroke:#7FFFFF;stroke-width:0.7087;stroke-linecap:round;stroke-linejoin:round;stroke-miterlimit:10;}
	.st3{fill:none;stroke:#FF7F00;stroke-width:0.5102;stroke-linecap:round;stroke-linejoin:round;stroke-miterlimit:10;}
	.st4{fill:none;stroke:#FFBF7F;stroke-width:0.7087;stroke-linecap:round;stroke-linejoin:round;stroke-miterlimit:10;}
	.st5{fill:none;stroke:#FFFF00;stroke-width:0.5102;stroke-linecap:round;stroke-linejoin:round;stroke-miterlimit:10;}
	
		.st6{fill:none;stroke:#FF7F7F;stroke-width:0.7087;stroke-linecap:round;stroke-linejoin:round;stroke-miterlimit:10;stroke-dasharray:2.3789,1.1894;}
	.st7{fill:none;stroke:#000000;stroke-width:0;stroke-linecap:round;stroke-linejoin:round;stroke-miterlimit:10;}
	.st8{fill-rule:evenodd;clip-rule:evenodd;fill:url(#);}
	.st9{fill:none;stroke:#00CCCC;stroke-width:0.9921;stroke-linecap:round;stroke-linejoin:round;stroke-miterlimit:10;}
	.st10{fill:none;stroke:#FF7F7F;stroke-width:0.7087;stroke-linecap:round;stroke-linejoin:round;stroke-miterlimit:10;}
	.st11{fill:none;stroke:#003FFF;stroke-width:0.7087;stroke-linecap:round;stroke-linejoin:round;stroke-miterlimit:10;}
	
		.st12{fill:none;stroke:#6600CC;stroke-width:0.5102;stroke-linecap:round;stroke-linejoin:round;stroke-miterlimit:10;stroke-dasharray:2.3789,1.1894;}
	.st13{fill:none;stroke:#6600CC;stroke-width:0.9921;stroke-linecap:round;stroke-linejoin:round;stroke-miterlimit:10;}
	
		.st14{fill:none;stroke:#FF7F00;stroke-width:0.5102;stroke-linecap:round;stroke-linejoin:round;stroke-miterlimit:10;stroke-dasharray:2.3789,1.1894;}
	.st15{fill:none;stroke:#CC6600;stroke-width:0.9921;stroke-linecap:round;stroke-linejoin:round;stroke-miterlimit:10;}
	
		.st16{fill:none;stroke:#7FFFFF;stroke-width:0.7087;stroke-linecap:round;stroke-linejoin:round;stroke-miterlimit:10;stroke-dasharray:2.3789,1.1894;}
	
		.st17{fill:none;stroke:#CC0000;stroke-width:0.5102;stroke-linecap:round;stroke-linejoin:round;stroke-miterlimit:10;stroke-dasharray:2.3789,1.1894;}
	.st18{fill:none;stroke:#CC0000;stroke-width:0.9921;stroke-linecap:round;stroke-linejoin:round;stroke-miterlimit:10;}
	.st19{fill-rule:evenodd;clip-rule:evenodd;fill:#5B5B5B;}
	.st20{fill:none;stroke:#66CC99;stroke-width:1.4173;stroke-linecap:round;stroke-linejoin:round;stroke-miterlimit:10;}
	.st21{fill:none;stroke:#00CC66;stroke-width:0.7087;stroke-linecap:round;stroke-linejoin:round;stroke-miterlimit:10;}
	.st22{fill:none;stroke:#CCCC00;stroke-width:0.9921;stroke-linecap:round;stroke-linejoin:round;stroke-miterlimit:10;}
	
		.st23{fill:none;stroke:#FFBF7F;stroke-width:0.7087;stroke-linecap:round;stroke-linejoin:round;stroke-miterlimit:10;stroke-dasharray:2.3789,1.1894;}
	.st24{fill:none;stroke:#7FBFFF;stroke-width:0.7087;stroke-linecap:round;stroke-linejoin:round;stroke-miterlimit:10;}
	.st25{display:none;}
	.st26{display:inline;}
	.st27{fill:none;stroke:#FF7FFF;stroke-width:0.7087;stroke-linecap:round;stroke-linejoin:round;stroke-miterlimit:10;}
	.st28{fill:#FF7FFF;}
	.st29{font-family:'MyriadPro-Regular';}
	.st30{font-size:10.0799px;}
</style>
<g id="A-Sect-Fine">
	<g id="LINE_305_">
		<line class="st0" x1="237.9" y1="146.4" x2="237.9" y2="102.6"/>
	</g>
	<g id="LINE_306_">
		<line class="st0" x1="485.3" y1="146.4" x2="485.3" y2="102.6"/>
	</g>
	<g id="LINE_307_">
		<line class="st0" x1="85.6" y1="264.4" x2="85.6" y2="187.2"/>
	</g>
	<g id="LINE_308_">
		<line class="st0" x1="118.7" y1="237.4" x2="118.7" y2="201"/>
	</g>
	<g id="LINE_309_">
		<line class="st0" x1="175.8" y1="237.4" x2="175.8" y2="201"/>
	</g>
	<g id="LINE_310_">
		<line class="st0" x1="203" y1="264.4" x2="203" y2="199.4"/>
	</g>
	<g id="LINE_311_">
		<line class="st0" x1="230" y1="264.4" x2="230" y2="199.4"/>
	</g>
	<g id="LINE_312_">
		<line class="st0" x1="493.2" y1="264.4" x2="493.2" y2="199.4"/>
	</g>
	<g id="LINE_313_">
		<line class="st0" x1="523.4" y1="264.4" x2="523.4" y2="199.4"/>
	</g>
	<g id="LINE_314_">
		<line class="st0" x1="544.2" y1="229.5" x2="544.2" y2="201.9"/>
	</g>
	<g id="LINE_315_">
		<line class="st0" x1="591.7" y1="229.5" x2="591.7" y2="201.9"/>
	</g>
	<g id="LINE_316_">
		<line class="st0" x1="237.9" y1="264.4" x2="237.9" y2="150.2"/>
	</g>
	<g id="LINE_317_">
		<line class="st0" x1="249.1" y1="178.8" x2="249.1" y2="166.9"/>
	</g>
	<g id="LINE_318_">
		<line class="st0" x1="249.1" y1="237.4" x2="249.1" y2="189.9"/>
	</g>
	<g id="LINE_319_">
		<line class="st0" x1="280.7" y1="237.4" x2="280.7" y2="189.9"/>
	</g>
	<g id="LINE_320_">
		<line class="st0" x1="280.7" y1="178.8" x2="280.7" y2="150.2"/>
	</g>
	<g id="LINE_321_">
		<line class="st0" x1="284.3" y1="237.4" x2="284.3" y2="189.9"/>
	</g>
	<g id="LINE_322_">
		<line class="st0" x1="284.3" y1="178.8" x2="284.3" y2="147.8"/>
	</g>
	<g id="LINE_323_">
		<line class="st0" x1="315.9" y1="237.4" x2="315.9" y2="189.9"/>
	</g>
	<g id="LINE_324_">
		<line class="st0" x1="315.9" y1="178.8" x2="315.9" y2="131.2"/>
	</g>
	<g id="LINE_325_">
		<line class="st0" x1="319.4" y1="237.4" x2="319.4" y2="189.9"/>
	</g>
	<g id="LINE_326_">
		<line class="st0" x1="319.4" y1="178.8" x2="319.4" y2="128.8"/>
	</g>
	<g id="LINE_327_">
		<line class="st0" x1="351.1" y1="237.4" x2="351.1" y2="189.9"/>
	</g>
	<g id="LINE_328_">
		<line class="st0" x1="351.1" y1="178.8" x2="351.1" y2="112.2"/>
	</g>
	<g id="LINE_329_">
		<line class="st0" x1="361.6" y1="264.4" x2="361.6" y2="67.8"/>
	</g>
	<g id="LINE_330_">
		<line class="st0" x1="372.1" y1="178.8" x2="372.1" y2="112.2"/>
	</g>
	<g id="LINE_331_">
		<line class="st0" x1="372.1" y1="237.4" x2="372.1" y2="189.9"/>
	</g>
	<g id="LINE_332_">
		<line class="st0" x1="403.7" y1="178.8" x2="403.7" y2="128.8"/>
	</g>
	<g id="LINE_333_">
		<line class="st0" x1="403.7" y1="237.4" x2="403.7" y2="189.9"/>
	</g>
	<g id="LINE_334_">
		<line class="st0" x1="407.2" y1="178.8" x2="407.2" y2="131.2"/>
	</g>
	<g id="LINE_335_">
		<line class="st0" x1="407.2" y1="237.4" x2="407.2" y2="189.9"/>
	</g>
	<g id="LINE_336_">
		<line class="st0" x1="438.9" y1="178.8" x2="438.9" y2="147.8"/>
	</g>
	<g id="LINE_337_">
		<line class="st0" x1="438.9" y1="237.4" x2="438.9" y2="189.9"/>
	</g>
	<g id="LINE_338_">
		<line class="st0" x1="442.4" y1="237.4" x2="442.4" y2="189.9"/>
	</g>
	<g id="LINE_339_">
		<line class="st0" x1="442.4" y1="178.8" x2="442.4" y2="150.2"/>
	</g>
	<g id="LINE_340_">
		<line class="st0" x1="474.1" y1="178.8" x2="474.1" y2="166.9"/>
	</g>
	<g id="LINE_341_">
		<line class="st0" x1="474.1" y1="237.4" x2="474.1" y2="189.9"/>
	</g>
	<g id="LINE_342_">
		<line class="st0" x1="485.3" y1="264.4" x2="485.3" y2="150.2"/>
	</g>
	<g id="LINE_343_">
		<line class="st0" x1="614.1" y1="273.9" x2="614.1" y2="178.8"/>
	</g>
	<g id="LINE_344_">
		<line class="st0" x1="699.6" y1="227.9" x2="699.6" y2="189.9"/>
	</g>
	<g id="LINE_345_">
		<line class="st0" x1="756.7" y1="227.9" x2="756.7" y2="189.9"/>
	</g>
	<g id="LINE_346_">
		<line class="st0" x1="842.5" y1="273.9" x2="842.5" y2="178.8"/>
	</g>
	<g id="LINE_347_">
		<line class="st0" x1="118.7" y1="237.4" x2="175.8" y2="237.4"/>
	</g>
	<g id="LINE_348_">
		<line class="st0" x1="118.7" y1="201" x2="175.8" y2="201"/>
	</g>
	<g id="LINE_349_">
		<line class="st0" x1="203" y1="199.4" x2="230" y2="199.4"/>
	</g>
	<g id="LINE_350_">
		<line class="st0" x1="493.2" y1="199.4" x2="523.4" y2="199.4"/>
	</g>
	<g id="LINE_351_">
		<line class="st0" x1="249.1" y1="237.4" x2="280.7" y2="237.4"/>
	</g>
	<g id="LINE_352_">
		<line class="st0" x1="249.1" y1="189.9" x2="280.7" y2="189.9"/>
	</g>
	<g id="LINE_353_">
		<line class="st0" x1="249.1" y1="178.8" x2="280.7" y2="178.8"/>
	</g>
	<g id="LINE_354_">
		<line class="st0" x1="249.1" y1="166.9" x2="249.1" y2="166.9"/>
	</g>
	<g id="LINE_355_">
		<line class="st0" x1="284.3" y1="237.4" x2="315.9" y2="237.4"/>
	</g>
	<g id="LINE_356_">
		<line class="st0" x1="284.3" y1="189.9" x2="315.9" y2="189.9"/>
	</g>
	<g id="LINE_357_">
		<line class="st0" x1="284.3" y1="178.8" x2="315.9" y2="178.8"/>
	</g>
	<g id="LINE_358_">
		<line class="st0" x1="284.3" y1="147.8" x2="284.3" y2="147.8"/>
	</g>
	<g id="LINE_359_">
		<line class="st0" x1="319.4" y1="237.4" x2="351.1" y2="237.4"/>
	</g>
	<g id="LINE_360_">
		<line class="st0" x1="319.4" y1="189.9" x2="351.1" y2="189.9"/>
	</g>
	<g id="LINE_361_">
		<line class="st0" x1="319.4" y1="178.8" x2="351.1" y2="178.8"/>
	</g>
	<g id="LINE_362_">
		<line class="st0" x1="319.4" y1="128.8" x2="319.5" y2="128.8"/>
	</g>
	<g id="LINE_363_">
		<line class="st0" x1="372.1" y1="237.4" x2="403.7" y2="237.4"/>
	</g>
	<g id="LINE_364_">
		<line class="st0" x1="372.1" y1="189.9" x2="403.7" y2="189.9"/>
	</g>
	<g id="LINE_365_">
		<line class="st0" x1="372.1" y1="178.8" x2="403.7" y2="178.8"/>
	</g>
	<g id="LINE_366_">
		<line class="st0" x1="403.7" y1="128.8" x2="403.7" y2="128.8"/>
	</g>
	<g id="LINE_367_">
		<line class="st0" x1="407.2" y1="237.4" x2="438.9" y2="237.4"/>
	</g>
	<g id="LINE_368_">
		<line class="st0" x1="407.2" y1="189.9" x2="438.9" y2="189.9"/>
	</g>
	<g id="LINE_369_">
		<line class="st0" x1="407.2" y1="178.8" x2="438.9" y2="178.8"/>
	</g>
	<g id="LINE_370_">
		<line class="st0" x1="438.8" y1="147.8" x2="438.9" y2="147.8"/>
	</g>
	<g id="LINE_371_">
		<line class="st0" x1="442.4" y1="237.4" x2="474.1" y2="237.4"/>
	</g>
	<g id="LINE_372_">
		<line class="st0" x1="442.4" y1="189.9" x2="474.1" y2="189.9"/>
	</g>
	<g id="LINE_373_">
		<line class="st0" x1="442.4" y1="178.8" x2="474.1" y2="178.8"/>
	</g>
	<g id="LINE_374_">
		<line class="st0" x1="474" y1="166.9" x2="474.1" y2="166.9"/>
	</g>
	<g id="LINE_375_">
		<line class="st0" x1="614.1" y1="273.9" x2="842.5" y2="273.9"/>
	</g>
	<g id="LINE_376_">
		<line class="st0" x1="699.6" y1="189.9" x2="756.7" y2="189.9"/>
	</g>
	<g id="LINE_377_">
		<line class="st0" x1="699.6" y1="227.9" x2="756.7" y2="227.9"/>
	</g>
	<g id="LINE_378_">
		<line class="st0" x1="249.1" y1="166.9" x2="280.7" y2="150.2"/>
	</g>
	<g id="LINE_379_">
		<line class="st0" x1="284.3" y1="147.8" x2="315.9" y2="131.2"/>
	</g>
	<g id="LINE_380_">
		<line class="st0" x1="319.4" y1="128.8" x2="351.1" y2="112.2"/>
	</g>
	<g id="LINE_381_">
		<line class="st0" x1="372.1" y1="112.2" x2="403.7" y2="128.8"/>
	</g>
	<g id="LINE_382_">
		<line class="st0" x1="407.2" y1="131.2" x2="438.9" y2="147.8"/>
	</g>
	<g id="LINE_383_">
		<line class="st0" x1="442.4" y1="150.2" x2="474.1" y2="166.9"/>
	</g>
	<g id="LINE_384_">
		<line class="st0" x1="802.9" y1="152.4" x2="842.5" y2="178.8"/>
	</g>
</g>
<g id="A-Sect-Thin">
	<g id="LINE_385_">
		<line class="st1" x1="361.6" y1="63.9" x2="361.6" y2="63.4"/>
	</g>
	<g id="LINE_386_">
		<line class="st1" x1="498" y1="106.3" x2="498" y2="103.2"/>
	</g>
	<g id="LINE_387_">
		<line class="st1" x1="225.2" y1="106.3" x2="225.2" y2="103.2"/>
	</g>
	<g id="LINE_388_">
		<line class="st1" x1="85.6" y1="273.9" x2="85.6" y2="264.4"/>
	</g>
	<g id="LINE_389_">
		<line class="st1" x1="199.8" y1="272.3" x2="199.8" y2="264.4"/>
	</g>
	<g id="LINE_390_">
		<line class="st1" x1="361.6" y1="273.9" x2="361.6" y2="264.4"/>
	</g>
	<g id="LINE_391_">
		<line class="st1" x1="523.4" y1="272.3" x2="523.4" y2="264.4"/>
	</g>
	<g id="LINE_392_">
		<line class="st1" x1="618.5" y1="272.3" x2="618.5" y2="264.4"/>
	</g>
	<g id="LINE_393_">
		<line class="st1" x1="237.9" y1="273.9" x2="237.9" y2="272.3"/>
	</g>
	<g id="LINE_394_">
		<line class="st1" x1="485.3" y1="273.9" x2="485.3" y2="272.3"/>
	</g>
	<g id="LINE_395_">
		<line class="st1" x1="582.1" y1="228.6" x2="582.1" y2="201.9"/>
	</g>
	<g id="LINE_396_">
		<line class="st1" x1="583.1" y1="229.5" x2="583.1" y2="201.9"/>
	</g>
	<g id="LINE_397_">
		<line class="st1" x1="583.8" y1="228.6" x2="583.8" y2="201.9"/>
	</g>
	<g id="LINE_398_">
		<line class="st1" x1="552.2" y1="228.6" x2="552.2" y2="201.9"/>
	</g>
	<g id="LINE_399_">
		<line class="st1" x1="552.9" y1="229.5" x2="552.9" y2="201.9"/>
	</g>
	<g id="LINE_400_">
		<line class="st1" x1="601.5" y1="187.2" x2="601.5" y2="184.1"/>
	</g>
	<g id="LINE_401_">
		<line class="st1" x1="728.3" y1="102.6" x2="728.3" y2="99.5"/>
	</g>
	<g id="LINE_402_">
		<line class="st1" x1="855.2" y1="187.2" x2="855.2" y2="184.1"/>
	</g>
	<g id="LINE_403_">
		<line class="st1" x1="718.4" y1="106.1" x2="718.4" y2="105.2"/>
	</g>
	<g id="LINE_404_">
		<line class="st1" x1="66.6" y1="187.2" x2="66.6" y2="105.2"/>
	</g>
	<g id="LINE_405_">
		<line class="st1" x1="361.6" y1="67.8" x2="361.6" y2="63.9"/>
	</g>
	<g id="LINE_406_">
		<line class="st1" x1="85.6" y1="272.3" x2="618.5" y2="272.3"/>
	</g>
	<g id="LINE_407_">
		<line class="st1" x1="85.6" y1="264.4" x2="618.5" y2="264.4"/>
	</g>
	<g id="LINE_408_">
		<line class="st1" x1="85.6" y1="273.9" x2="614.1" y2="273.9"/>
	</g>
	<g id="LINE_409_">
		<line class="st1" x1="485.3" y1="105.2" x2="494" y2="105.2"/>
	</g>
	<g id="LINE_410_">
		<line class="st1" x1="498" y1="105.2" x2="718.4" y2="105.2"/>
	</g>
	<g id="LINE_411_">
		<line class="st1" x1="485.3" y1="191.5" x2="614.1" y2="191.5"/>
	</g>
	<g id="LINE_412_">
		<line class="st1" x1="485.3" y1="188.8" x2="614.1" y2="188.8"/>
	</g>
	<g id="LINE_413_">
		<line class="st1" x1="66.6" y1="187.2" x2="237.9" y2="187.2"/>
	</g>
	<g id="LINE_414_">
		<line class="st1" x1="66.6" y1="105.2" x2="225.2" y2="105.2"/>
	</g>
	<g id="LINE_415_">
		<line class="st1" x1="229.2" y1="105.2" x2="237.9" y2="105.2"/>
	</g>
	<g id="LINE_416_">
		<line class="st1" x1="66.6" y1="184.6" x2="237.9" y2="184.6"/>
	</g>
	<g id="LINE_417_">
		<line class="st1" x1="368.6" y1="68.6" x2="498" y2="106.3"/>
	</g>
	<g id="LINE_418_">
		<line class="st1" x1="361.6" y1="63.4" x2="498" y2="103.2"/>
	</g>
	<g id="LINE_419_">
		<line class="st1" x1="225.2" y1="106.3" x2="354.6" y2="68.6"/>
	</g>
	<g id="LINE_420_">
		<line class="st1" x1="225.2" y1="103.2" x2="361.6" y2="63.4"/>
	</g>
	<g id="LINE_421_">
		<line class="st1" x1="601.5" y1="187.2" x2="728.3" y2="102.6"/>
	</g>
	<g id="LINE_422_">
		<line class="st1" x1="601.5" y1="184.1" x2="728.3" y2="99.5"/>
	</g>
	<g id="LINE_423_">
		<line class="st1" x1="728.3" y1="102.6" x2="855.2" y2="187.2"/>
	</g>
	<g id="LINE_424_">
		<line class="st1" x1="728.3" y1="99.5" x2="855.2" y2="184.1"/>
	</g>
	<g id="LINE_425_">
		<line class="st1" x1="361.6" y1="67.8" x2="498" y2="158.7"/>
	</g>
	<g id="LINE_426_">
		<line class="st1" x1="361.6" y1="63.9" x2="499.7" y2="156"/>
	</g>
	<g id="LINE_427_">
		<line class="st1" x1="223.4" y1="156" x2="361.6" y2="63.9"/>
	</g>
	<g id="LINE_428_">
		<line class="st1" x1="225.2" y1="158.7" x2="361.6" y2="67.8"/>
	</g>
	<g id="LINE_429_">
		<line class="st1" x1="498" y1="158.7" x2="499.7" y2="156"/>
	</g>
	<g id="LINE_430_">
		<line class="st1" x1="225.2" y1="158.7" x2="223.4" y2="156"/>
	</g>
	<g id="LINE_431_">
		<line class="st1" x1="204.6" y1="264.4" x2="204.6" y2="201"/>
	</g>
	<g id="LINE_432_">
		<line class="st1" x1="228.4" y1="264.4" x2="228.4" y2="201"/>
	</g>
	<g id="LINE_433_">
		<line class="st1" x1="205.1" y1="264.4" x2="205.1" y2="201.5"/>
	</g>
	<g id="LINE_434_">
		<line class="st1" x1="227.9" y1="264.4" x2="227.9" y2="201.5"/>
	</g>
	<g id="LINE_435_">
		<line class="st1" x1="494.8" y1="264.4" x2="494.8" y2="201"/>
	</g>
	<g id="LINE_436_">
		<line class="st1" x1="521.8" y1="264.4" x2="521.8" y2="201"/>
	</g>
	<g id="LINE_437_">
		<line class="st1" x1="495.3" y1="264.4" x2="495.3" y2="201.5"/>
	</g>
	<g id="LINE_438_">
		<line class="st1" x1="521.3" y1="264.4" x2="521.3" y2="201.5"/>
	</g>
	<g id="LINE_439_">
		<line class="st1" x1="204.6" y1="201" x2="228.4" y2="201"/>
	</g>
	<g id="LINE_440_">
		<line class="st1" x1="205.1" y1="201.5" x2="227.9" y2="201.5"/>
	</g>
	<g id="LINE_441_">
		<line class="st1" x1="494.8" y1="201" x2="521.8" y2="201"/>
	</g>
	<g id="LINE_442_">
		<line class="st1" x1="495.3" y1="201.5" x2="521.3" y2="201.5"/>
	</g>
	<g id="LINE_443_">
		<line class="st1" x1="497.8" y1="235.9" x2="497.8" y2="204.1"/>
	</g>
	<g id="LINE_444_">
		<line class="st1" x1="518.8" y1="235.9" x2="518.8" y2="204.1"/>
	</g>
	<g id="LINE_445_">
		<line class="st1" x1="497.8" y1="235.9" x2="518.8" y2="235.9"/>
	</g>
	<g id="LINE_446_">
		<line class="st1" x1="497.8" y1="204.1" x2="518.8" y2="204.1"/>
	</g>
	<g id="LINE_447_">
		<line class="st1" x1="373.4" y1="235.9" x2="373.4" y2="191.5"/>
	</g>
	<g id="LINE_448_">
		<line class="st1" x1="402.2" y1="235.9" x2="402.2" y2="191.5"/>
	</g>
	<g id="LINE_449_">
		<line class="st1" x1="403.7" y1="237.4" x2="403.7" y2="189.9"/>
	</g>
	<g id="LINE_450_">
		<line class="st1" x1="373.6" y1="235.1" x2="373.6" y2="192.3"/>
	</g>
	<g id="LINE_451_">
		<line class="st1" x1="401" y1="235.1" x2="401" y2="192.3"/>
	</g>
	<g id="LINE_452_">
		<line class="st1" x1="401.7" y1="235.9" x2="401.7" y2="191.5"/>
	</g>
	<g id="LINE_453_">
		<line class="st1" x1="443.8" y1="235.9" x2="443.8" y2="191.5"/>
	</g>
	<g id="LINE_454_">
		<line class="st1" x1="472.6" y1="235.9" x2="472.6" y2="191.5"/>
	</g>
	<g id="LINE_455_">
		<line class="st1" x1="474" y1="237.4" x2="474" y2="189.9"/>
	</g>
	<g id="LINE_456_">
		<line class="st1" x1="444" y1="235.1" x2="444" y2="192.3"/>
	</g>
	<g id="LINE_457_">
		<line class="st1" x1="471.4" y1="235.1" x2="471.4" y2="192.3"/>
	</g>
	<g id="LINE_458_">
		<line class="st1" x1="472.1" y1="235.9" x2="472.1" y2="191.5"/>
	</g>
	<g id="LINE_459_">
		<line class="st1" x1="408.6" y1="235.9" x2="408.6" y2="191.5"/>
	</g>
	<g id="LINE_460_">
		<line class="st1" x1="437.4" y1="235.9" x2="437.4" y2="191.5"/>
	</g>
	<g id="LINE_461_">
		<line class="st1" x1="438.8" y1="237.4" x2="438.8" y2="189.9"/>
	</g>
	<g id="LINE_462_">
		<line class="st1" x1="408.8" y1="235.1" x2="408.8" y2="192.3"/>
	</g>
	<g id="LINE_463_">
		<line class="st1" x1="436.2" y1="235.1" x2="436.2" y2="192.3"/>
	</g>
	<g id="LINE_464_">
		<line class="st1" x1="436.9" y1="235.9" x2="436.9" y2="191.5"/>
	</g>
	<g id="LINE_465_">
		<line class="st1" x1="319.5" y1="237.4" x2="319.5" y2="189.9"/>
	</g>
	<g id="LINE_466_">
		<line class="st1" x1="321" y1="235.9" x2="321" y2="191.5"/>
	</g>
	<g id="LINE_467_">
		<line class="st1" x1="349.8" y1="235.9" x2="349.8" y2="191.5"/>
	</g>
	<g id="LINE_468_">
		<line class="st1" x1="321.5" y1="235.9" x2="321.5" y2="191.5"/>
	</g>
	<g id="LINE_469_">
		<line class="st1" x1="322.2" y1="235.1" x2="322.2" y2="192.3"/>
	</g>
	<g id="LINE_470_">
		<line class="st1" x1="349.5" y1="235.1" x2="349.5" y2="192.3"/>
	</g>
	<g id="LINE_471_">
		<line class="st1" x1="249.1" y1="237.4" x2="249.1" y2="189.9"/>
	</g>
	<g id="LINE_472_">
		<line class="st1" x1="250.6" y1="235.9" x2="250.6" y2="191.5"/>
	</g>
	<g id="LINE_473_">
		<line class="st1" x1="279.4" y1="235.9" x2="279.4" y2="191.5"/>
	</g>
	<g id="LINE_474_">
		<line class="st1" x1="251.1" y1="235.9" x2="251.1" y2="191.5"/>
	</g>
	<g id="LINE_475_">
		<line class="st1" x1="251.8" y1="235.1" x2="251.8" y2="192.3"/>
	</g>
	<g id="LINE_476_">
		<line class="st1" x1="279.2" y1="235.1" x2="279.2" y2="192.3"/>
	</g>
	<g id="LINE_477_">
		<line class="st1" x1="284.3" y1="237.4" x2="284.3" y2="189.9"/>
	</g>
	<g id="LINE_478_">
		<line class="st1" x1="285.8" y1="235.9" x2="285.8" y2="191.5"/>
	</g>
	<g id="LINE_479_">
		<line class="st1" x1="314.6" y1="235.9" x2="314.6" y2="191.5"/>
	</g>
	<g id="LINE_480_">
		<line class="st1" x1="286.3" y1="235.9" x2="286.3" y2="191.5"/>
	</g>
	<g id="LINE_481_">
		<line class="st1" x1="287" y1="235.1" x2="287" y2="192.3"/>
	</g>
	<g id="LINE_482_">
		<line class="st1" x1="314.4" y1="235.1" x2="314.4" y2="192.3"/>
	</g>
	<g id="LINE_483_">
		<line class="st1" x1="120.3" y1="235.9" x2="120.3" y2="202.6"/>
	</g>
	<g id="LINE_484_">
		<line class="st1" x1="174.3" y1="235.9" x2="174.3" y2="202.6"/>
	</g>
	<g id="LINE_485_">
		<line class="st1" x1="121.1" y1="235.1" x2="121.1" y2="203.4"/>
	</g>
	<g id="LINE_486_">
		<line class="st1" x1="173.5" y1="235.1" x2="173.5" y2="203.4"/>
	</g>
	<g id="LINE_487_">
		<line class="st1" x1="584.4" y1="227.7" x2="584.4" y2="202.3"/>
	</g>
	<g id="LINE_488_">
		<line class="st1" x1="591.1" y1="227.7" x2="591.1" y2="202.3"/>
	</g>
	<g id="LINE_489_">
		<line class="st1" x1="584.6" y1="226.8" x2="584.6" y2="203.2"/>
	</g>
	<g id="LINE_490_">
		<line class="st1" x1="589.9" y1="226.8" x2="589.9" y2="203.2"/>
	</g>
	<g id="LINE_491_">
		<line class="st1" x1="590.6" y1="227.7" x2="590.6" y2="202.3"/>
	</g>
	<g id="LINE_492_">
		<line class="st1" x1="553.8" y1="228.6" x2="553.8" y2="201.9"/>
	</g>
	<g id="LINE_493_">
		<line class="st1" x1="554.8" y1="227.7" x2="554.8" y2="202.3"/>
	</g>
	<g id="LINE_494_">
		<line class="st1" x1="581.1" y1="227.7" x2="581.1" y2="202.3"/>
	</g>
	<g id="LINE_495_">
		<line class="st1" x1="555.7" y1="226.8" x2="555.7" y2="203.2"/>
	</g>
	<g id="LINE_496_">
		<line class="st1" x1="580.2" y1="226.8" x2="580.2" y2="203.2"/>
	</g>
	<g id="LINE_497_">
		<line class="st1" x1="544.8" y1="227.7" x2="544.8" y2="202.3"/>
	</g>
	<g id="LINE_498_">
		<line class="st1" x1="551.5" y1="227.7" x2="551.5" y2="202.3"/>
	</g>
	<g id="LINE_499_">
		<line class="st1" x1="545.3" y1="227.7" x2="545.3" y2="202.3"/>
	</g>
	<g id="LINE_500_">
		<line class="st1" x1="546" y1="226.8" x2="546" y2="203.2"/>
	</g>
	<g id="LINE_501_">
		<line class="st1" x1="551.3" y1="226.8" x2="551.3" y2="203.2"/>
	</g>
	<g id="LINE_502_">
		<line class="st1" x1="373.4" y1="177.2" x2="373.4" y2="114.7"/>
	</g>
	<g id="LINE_503_">
		<line class="st1" x1="402.2" y1="177.2" x2="402.2" y2="129.8"/>
	</g>
	<g id="LINE_504_">
		<line class="st1" x1="403.7" y1="178.8" x2="403.7" y2="128.8"/>
	</g>
	<g id="LINE_505_">
		<line class="st1" x1="373.6" y1="176.4" x2="373.6" y2="115.9"/>
	</g>
	<g id="LINE_506_">
		<line class="st1" x1="401" y1="176.4" x2="401" y2="130.3"/>
	</g>
	<g id="LINE_507_">
		<line class="st1" x1="401.7" y1="177.2" x2="401.7" y2="129.8"/>
	</g>
	<g id="LINE_508_">
		<line class="st1" x1="319.5" y1="178.8" x2="319.5" y2="128.8"/>
	</g>
	<g id="LINE_509_">
		<line class="st1" x1="321" y1="177.2" x2="321" y2="129.8"/>
	</g>
	<g id="LINE_510_">
		<line class="st1" x1="349.8" y1="177.2" x2="349.8" y2="114.7"/>
	</g>
	<g id="LINE_511_">
		<line class="st1" x1="321.5" y1="177.2" x2="321.5" y2="129.8"/>
	</g>
	<g id="LINE_512_">
		<line class="st1" x1="322.2" y1="176.4" x2="322.2" y2="130.3"/>
	</g>
	<g id="LINE_513_">
		<line class="st1" x1="349.5" y1="176.4" x2="349.5" y2="115.9"/>
	</g>
	<g id="LINE_514_">
		<line class="st1" x1="284.3" y1="178.8" x2="284.3" y2="147.8"/>
	</g>
	<g id="LINE_515_">
		<line class="st1" x1="285.8" y1="177.2" x2="285.8" y2="148.8"/>
	</g>
	<g id="LINE_516_">
		<line class="st1" x1="314.6" y1="177.2" x2="314.6" y2="133.7"/>
	</g>
	<g id="LINE_517_">
		<line class="st1" x1="286.3" y1="177.2" x2="286.3" y2="148.8"/>
	</g>
	<g id="LINE_518_">
		<line class="st1" x1="287" y1="176.4" x2="287" y2="149.3"/>
	</g>
	<g id="LINE_519_">
		<line class="st1" x1="314.4" y1="176.4" x2="314.4" y2="135"/>
	</g>
	<g id="LINE_520_">
		<line class="st1" x1="408.6" y1="177.2" x2="408.6" y2="133.7"/>
	</g>
	<g id="LINE_521_">
		<line class="st1" x1="437.4" y1="177.2" x2="437.4" y2="148.8"/>
	</g>
	<g id="LINE_522_">
		<line class="st1" x1="438.8" y1="178.8" x2="438.8" y2="147.8"/>
	</g>
	<g id="LINE_523_">
		<line class="st1" x1="408.8" y1="176.4" x2="408.8" y2="135"/>
	</g>
	<g id="LINE_524_">
		<line class="st1" x1="436.2" y1="176.4" x2="436.2" y2="149.3"/>
	</g>
	<g id="LINE_525_">
		<line class="st1" x1="436.9" y1="177.2" x2="436.9" y2="148.8"/>
	</g>
	<g id="LINE_526_">
		<line class="st1" x1="701.2" y1="226.3" x2="701.2" y2="191.5"/>
	</g>
	<g id="LINE_527_">
		<line class="st1" x1="755.1" y1="226.3" x2="755.1" y2="191.5"/>
	</g>
	<g id="LINE_528_">
		<line class="st1" x1="702" y1="225.6" x2="702" y2="192.3"/>
	</g>
	<g id="LINE_529_">
		<line class="st1" x1="727.7" y1="225.6" x2="727.7" y2="192.3"/>
	</g>
	<g id="LINE_530_">
		<line class="st1" x1="728.5" y1="226.3" x2="728.5" y2="191.5"/>
	</g>
	<g id="LINE_531_">
		<line class="st1" x1="754.3" y1="225.6" x2="754.3" y2="192.3"/>
	</g>
	<g id="LINE_532_">
		<line class="st1" x1="249.1" y1="178.8" x2="249.1" y2="166.9"/>
	</g>
	<g id="LINE_533_">
		<line class="st1" x1="250.6" y1="177.2" x2="250.6" y2="167.9"/>
	</g>
	<g id="LINE_534_">
		<line class="st1" x1="279.4" y1="177.2" x2="279.4" y2="152.7"/>
	</g>
	<g id="LINE_535_">
		<line class="st1" x1="251.1" y1="177.2" x2="251.1" y2="167.9"/>
	</g>
	<g id="LINE_536_">
		<line class="st1" x1="251.8" y1="176.4" x2="251.8" y2="168.4"/>
	</g>
	<g id="LINE_537_">
		<line class="st1" x1="279.2" y1="176.4" x2="279.2" y2="154"/>
	</g>
	<g id="LINE_538_">
		<line class="st1" x1="443.8" y1="177.2" x2="443.8" y2="152.7"/>
	</g>
	<g id="LINE_539_">
		<line class="st1" x1="472.6" y1="177.2" x2="472.6" y2="167.9"/>
	</g>
	<g id="LINE_540_">
		<line class="st1" x1="474" y1="178.8" x2="474" y2="166.9"/>
	</g>
	<g id="LINE_541_">
		<line class="st1" x1="444" y1="176.4" x2="444" y2="154"/>
	</g>
	<g id="LINE_542_">
		<line class="st1" x1="471.4" y1="176.4" x2="471.4" y2="168.4"/>
	</g>
	<g id="LINE_543_">
		<line class="st1" x1="472.1" y1="177.2" x2="472.1" y2="167.9"/>
	</g>
	<g id="LINE_544_">
		<line class="st1" x1="373.4" y1="191.5" x2="402.2" y2="191.5"/>
	</g>
	<g id="LINE_545_">
		<line class="st1" x1="373.4" y1="235.9" x2="402.2" y2="235.9"/>
	</g>
	<g id="LINE_546_">
		<line class="st1" x1="373.6" y1="192.3" x2="401" y2="192.3"/>
	</g>
	<g id="LINE_547_">
		<line class="st1" x1="373.6" y1="235.1" x2="401" y2="235.1"/>
	</g>
	<g id="LINE_548_">
		<line class="st1" x1="443.8" y1="191.5" x2="472.6" y2="191.5"/>
	</g>
	<g id="LINE_549_">
		<line class="st1" x1="443.8" y1="235.9" x2="472.6" y2="235.9"/>
	</g>
	<g id="LINE_550_">
		<line class="st1" x1="444" y1="192.3" x2="471.4" y2="192.3"/>
	</g>
	<g id="LINE_551_">
		<line class="st1" x1="444" y1="235.1" x2="471.4" y2="235.1"/>
	</g>
	<g id="LINE_552_">
		<line class="st1" x1="408.6" y1="191.5" x2="437.4" y2="191.5"/>
	</g>
	<g id="LINE_553_">
		<line class="st1" x1="408.6" y1="235.9" x2="437.4" y2="235.9"/>
	</g>
	<g id="LINE_554_">
		<line class="st1" x1="408.8" y1="192.3" x2="436.2" y2="192.3"/>
	</g>
	<g id="LINE_555_">
		<line class="st1" x1="408.8" y1="235.1" x2="436.2" y2="235.1"/>
	</g>
	<g id="LINE_556_">
		<line class="st1" x1="321" y1="235.9" x2="349.8" y2="235.9"/>
	</g>
	<g id="LINE_557_">
		<line class="st1" x1="321" y1="191.5" x2="349.8" y2="191.5"/>
	</g>
	<g id="LINE_558_">
		<line class="st1" x1="322.2" y1="235.1" x2="349.5" y2="235.1"/>
	</g>
	<g id="LINE_559_">
		<line class="st1" x1="322.2" y1="192.3" x2="349.5" y2="192.3"/>
	</g>
	<g id="LINE_560_">
		<line class="st1" x1="250.6" y1="235.9" x2="279.4" y2="235.9"/>
	</g>
	<g id="LINE_561_">
		<line class="st1" x1="250.6" y1="191.5" x2="279.4" y2="191.5"/>
	</g>
	<g id="LINE_562_">
		<line class="st1" x1="251.8" y1="235.1" x2="279.2" y2="235.1"/>
	</g>
	<g id="LINE_563_">
		<line class="st1" x1="251.8" y1="192.3" x2="279.2" y2="192.3"/>
	</g>
	<g id="LINE_564_">
		<line class="st1" x1="285.8" y1="235.9" x2="314.6" y2="235.9"/>
	</g>
	<g id="LINE_565_">
		<line class="st1" x1="285.8" y1="191.5" x2="314.6" y2="191.5"/>
	</g>
	<g id="LINE_566_">
		<line class="st1" x1="287" y1="235.1" x2="314.4" y2="235.1"/>
	</g>
	<g id="LINE_567_">
		<line class="st1" x1="287" y1="192.3" x2="314.4" y2="192.3"/>
	</g>
	<g id="LINE_568_">
		<line class="st1" x1="120.3" y1="235.9" x2="174.3" y2="235.9"/>
	</g>
	<g id="LINE_569_">
		<line class="st1" x1="120.3" y1="202.6" x2="174.3" y2="202.6"/>
	</g>
	<g id="LINE_570_">
		<line class="st1" x1="121.1" y1="235.1" x2="173.5" y2="235.1"/>
	</g>
	<g id="LINE_571_">
		<line class="st1" x1="121.1" y1="203.4" x2="173.5" y2="203.4"/>
	</g>
	<g id="LINE_572_">
		<line class="st1" x1="584.4" y1="227.7" x2="591.1" y2="227.7"/>
	</g>
	<g id="LINE_573_">
		<line class="st1" x1="584.4" y1="202.3" x2="591.1" y2="202.3"/>
	</g>
	<g id="LINE_574_">
		<line class="st1" x1="584.6" y1="226.8" x2="589.9" y2="226.8"/>
	</g>
	<g id="LINE_575_">
		<line class="st1" x1="584.6" y1="203.2" x2="589.9" y2="203.2"/>
	</g>
	<g id="LINE_576_">
		<line class="st1" x1="554.8" y1="202.3" x2="581.1" y2="202.3"/>
	</g>
	<g id="LINE_577_">
		<line class="st1" x1="554.8" y1="227.7" x2="581.1" y2="227.7"/>
	</g>
	<g id="LINE_578_">
		<line class="st1" x1="555.7" y1="203.2" x2="580.2" y2="203.2"/>
	</g>
	<g id="LINE_579_">
		<line class="st1" x1="555.7" y1="226.8" x2="580.2" y2="226.8"/>
	</g>
	<g id="LINE_580_">
		<line class="st1" x1="544.8" y1="202.3" x2="551.5" y2="202.3"/>
	</g>
	<g id="LINE_581_">
		<line class="st1" x1="544.8" y1="227.7" x2="551.5" y2="227.7"/>
	</g>
	<g id="LINE_582_">
		<line class="st1" x1="546" y1="203.2" x2="551.3" y2="203.2"/>
	</g>
	<g id="LINE_583_">
		<line class="st1" x1="546" y1="226.8" x2="551.3" y2="226.8"/>
	</g>
	<g id="LINE_584_">
		<line class="st1" x1="373.4" y1="177.2" x2="402.2" y2="177.2"/>
	</g>
	<g id="LINE_585_">
		<line class="st1" x1="401.7" y1="129.8" x2="402.2" y2="129.8"/>
	</g>
	<g id="LINE_586_">
		<line class="st1" x1="373.6" y1="176.4" x2="401" y2="176.4"/>
	</g>
	<g id="LINE_587_">
		<line class="st1" x1="400.7" y1="130.3" x2="401" y2="130.3"/>
	</g>
	<g id="LINE_588_">
		<line class="st1" x1="321" y1="177.2" x2="349.8" y2="177.2"/>
	</g>
	<g id="LINE_589_">
		<line class="st1" x1="321" y1="129.8" x2="321.5" y2="129.8"/>
	</g>
	<g id="LINE_590_">
		<line class="st1" x1="322.2" y1="176.4" x2="349.5" y2="176.4"/>
	</g>
	<g id="LINE_591_">
		<line class="st1" x1="322.2" y1="130.3" x2="322.5" y2="130.3"/>
	</g>
	<g id="LINE_592_">
		<line class="st1" x1="285.8" y1="177.2" x2="314.6" y2="177.2"/>
	</g>
	<g id="LINE_593_">
		<line class="st1" x1="285.8" y1="148.8" x2="286.3" y2="148.8"/>
	</g>
	<g id="LINE_594_">
		<line class="st1" x1="287" y1="176.4" x2="314.4" y2="176.4"/>
	</g>
	<g id="LINE_595_">
		<line class="st1" x1="287" y1="149.3" x2="287.3" y2="149.3"/>
	</g>
	<g id="LINE_596_">
		<line class="st1" x1="408.6" y1="177.2" x2="437.4" y2="177.2"/>
	</g>
	<g id="LINE_597_">
		<line class="st1" x1="436.9" y1="148.8" x2="437.4" y2="148.8"/>
	</g>
	<g id="LINE_598_">
		<line class="st1" x1="408.8" y1="176.4" x2="436.2" y2="176.4"/>
	</g>
	<g id="LINE_599_">
		<line class="st1" x1="435.9" y1="149.3" x2="436.2" y2="149.3"/>
	</g>
	<g id="LINE_600_">
		<line class="st1" x1="701.2" y1="191.5" x2="755.1" y2="191.5"/>
	</g>
	<g id="LINE_601_">
		<line class="st1" x1="701.2" y1="226.3" x2="755.1" y2="226.3"/>
	</g>
	<g id="LINE_602_">
		<line class="st1" x1="702" y1="192.3" x2="727.7" y2="192.3"/>
	</g>
	<g id="LINE_603_">
		<line class="st1" x1="702" y1="225.6" x2="727.7" y2="225.6"/>
	</g>
	<g id="LINE_604_">
		<line class="st1" x1="728.5" y1="192.3" x2="754.3" y2="192.3"/>
	</g>
	<g id="LINE_605_">
		<line class="st1" x1="728.5" y1="225.6" x2="754.3" y2="225.6"/>
	</g>
	<g id="LINE_606_">
		<line class="st1" x1="250.6" y1="177.2" x2="279.4" y2="177.2"/>
	</g>
	<g id="LINE_607_">
		<line class="st1" x1="250.6" y1="167.9" x2="251.1" y2="167.9"/>
	</g>
	<g id="LINE_608_">
		<line class="st1" x1="251.8" y1="176.4" x2="279.2" y2="176.4"/>
	</g>
	<g id="LINE_609_">
		<line class="st1" x1="251.8" y1="168.4" x2="252.1" y2="168.4"/>
	</g>
	<g id="LINE_610_">
		<line class="st1" x1="443.8" y1="177.2" x2="472.6" y2="177.2"/>
	</g>
	<g id="LINE_611_">
		<line class="st1" x1="472.1" y1="167.9" x2="472.6" y2="167.9"/>
	</g>
	<g id="LINE_612_">
		<line class="st1" x1="444" y1="176.4" x2="471.4" y2="176.4"/>
	</g>
	<g id="LINE_613_">
		<line class="st1" x1="471.1" y1="168.4" x2="471.4" y2="168.4"/>
	</g>
	<g id="LINE_614_">
		<line class="st1" x1="372.1" y1="112.2" x2="403.7" y2="128.8"/>
	</g>
	<g id="LINE_615_">
		<line class="st1" x1="373.4" y1="114.7" x2="402.2" y2="129.8"/>
	</g>
	<g id="LINE_616_">
		<line class="st1" x1="373.4" y1="114.9" x2="401.7" y2="129.8"/>
	</g>
	<g id="LINE_617_">
		<line class="st1" x1="373.6" y1="115.9" x2="401" y2="130.3"/>
	</g>
	<g id="LINE_618_">
		<line class="st1" x1="319.5" y1="128.8" x2="351.1" y2="112.2"/>
	</g>
	<g id="LINE_619_">
		<line class="st1" x1="321" y1="129.8" x2="349.8" y2="114.7"/>
	</g>
	<g id="LINE_620_">
		<line class="st1" x1="321.5" y1="129.8" x2="349.8" y2="114.9"/>
	</g>
	<g id="LINE_621_">
		<line class="st1" x1="322.2" y1="130.3" x2="349.5" y2="115.9"/>
	</g>
	<g id="LINE_622_">
		<line class="st1" x1="284.3" y1="147.8" x2="315.9" y2="131.2"/>
	</g>
	<g id="LINE_623_">
		<line class="st1" x1="285.8" y1="148.8" x2="314.6" y2="133.7"/>
	</g>
	<g id="LINE_624_">
		<line class="st1" x1="286.3" y1="148.8" x2="314.6" y2="134"/>
	</g>
	<g id="LINE_625_">
		<line class="st1" x1="287" y1="149.3" x2="314.4" y2="135"/>
	</g>
	<g id="LINE_626_">
		<line class="st1" x1="407.2" y1="131.2" x2="438.8" y2="147.8"/>
	</g>
	<g id="LINE_627_">
		<line class="st1" x1="408.6" y1="133.7" x2="437.4" y2="148.8"/>
	</g>
	<g id="LINE_628_">
		<line class="st1" x1="408.6" y1="134" x2="436.9" y2="148.8"/>
	</g>
	<g id="LINE_629_">
		<line class="st1" x1="408.8" y1="135" x2="436.2" y2="149.3"/>
	</g>
	<g id="LINE_630_">
		<line class="st1" x1="249.1" y1="166.9" x2="280.7" y2="150.3"/>
	</g>
	<g id="LINE_631_">
		<line class="st1" x1="250.6" y1="167.9" x2="279.4" y2="152.7"/>
	</g>
	<g id="LINE_632_">
		<line class="st1" x1="251.1" y1="167.9" x2="279.4" y2="153"/>
	</g>
	<g id="LINE_633_">
		<line class="st1" x1="251.8" y1="168.4" x2="279.2" y2="154"/>
	</g>
	<g id="LINE_634_">
		<line class="st1" x1="442.4" y1="150.3" x2="474" y2="166.9"/>
	</g>
	<g id="LINE_635_">
		<line class="st1" x1="443.8" y1="152.7" x2="472.6" y2="167.9"/>
	</g>
	<g id="LINE_636_">
		<line class="st1" x1="443.8" y1="153" x2="472.1" y2="167.9"/>
	</g>
	<g id="LINE_637_">
		<line class="st1" x1="444" y1="154" x2="471.4" y2="168.4"/>
	</g>
	<g id="LINE_638_">
		<line class="st1" x1="400.7" y1="235.1" x2="400.7" y2="192.3"/>
	</g>
	<g id="LINE_639_">
		<line class="st1" x1="471.1" y1="235.1" x2="471.1" y2="192.3"/>
	</g>
	<g id="LINE_640_">
		<line class="st1" x1="435.9" y1="235.1" x2="435.9" y2="192.3"/>
	</g>
	<g id="LINE_641_">
		<line class="st1" x1="322.5" y1="235.1" x2="322.5" y2="192.3"/>
	</g>
	<g id="LINE_642_">
		<line class="st1" x1="252.1" y1="235.1" x2="252.1" y2="192.3"/>
	</g>
	<g id="LINE_643_">
		<line class="st1" x1="287.3" y1="235.1" x2="287.3" y2="192.3"/>
	</g>
	<g id="LINE_644_">
		<line class="st1" x1="400.7" y1="176.4" x2="400.7" y2="130.3"/>
	</g>
	<g id="LINE_645_">
		<line class="st1" x1="322.5" y1="176.4" x2="322.5" y2="130.3"/>
	</g>
	<g id="LINE_646_">
		<line class="st1" x1="287.3" y1="176.4" x2="287.3" y2="149.3"/>
	</g>
	<g id="LINE_647_">
		<line class="st1" x1="435.9" y1="176.4" x2="435.9" y2="149.3"/>
	</g>
	<g id="LINE_648_">
		<line class="st1" x1="252.1" y1="176.4" x2="252.1" y2="168.4"/>
	</g>
	<g id="LINE_649_">
		<line class="st1" x1="471.1" y1="176.4" x2="471.1" y2="168.4"/>
	</g>
	<g id="LINE_650_">
		<line class="st1" x1="373.6" y1="116.1" x2="400.7" y2="130.3"/>
	</g>
	<g id="LINE_651_">
		<line class="st1" x1="322.5" y1="130.3" x2="349.5" y2="116.1"/>
	</g>
	<g id="LINE_652_">
		<line class="st1" x1="287.3" y1="149.3" x2="314.4" y2="135.1"/>
	</g>
	<g id="LINE_653_">
		<line class="st1" x1="408.8" y1="135.1" x2="435.9" y2="149.3"/>
	</g>
	<g id="LINE_654_">
		<line class="st1" x1="252.1" y1="168.4" x2="279.2" y2="154.1"/>
	</g>
	<g id="LINE_655_">
		<line class="st1" x1="444" y1="154.1" x2="471.1" y2="168.4"/>
	</g>
	<g id="LINE_656_">
		<line class="st1" x1="544.2" y1="229.5" x2="591.7" y2="229.5"/>
	</g>
	<g id="LINE_657_">
		<line class="st1" x1="544.2" y1="228.6" x2="591.7" y2="228.6"/>
	</g>
	<g id="LINE_658_">
		<line class="st1" x1="583.5" y1="201.9" x2="583.5" y2="200.1"/>
	</g>
	<g id="LINE_659_">
		<line class="st1" x1="593.1" y1="201.9" x2="593.1" y2="200.1"/>
	</g>
	<g id="LINE_660_">
		<line class="st1" x1="552.5" y1="201.9" x2="552.5" y2="200.1"/>
	</g>
	<g id="LINE_661_">
		<line class="st1" x1="542.8" y1="201.9" x2="542.8" y2="200.1"/>
	</g>
	<g id="LINE_662_">
		<line class="st1" x1="542.8" y1="201.9" x2="593.1" y2="201.9"/>
	</g>
	<g id="LINE_663_">
		<line class="st1" x1="542.8" y1="200.1" x2="593.1" y2="200.1"/>
	</g>
	<g id="LINE_664_">
		<line class="st1" x1="556.4" y1="195.4" x2="579.5" y2="195.4"/>
	</g>
	<g id="LINE_665_">
		<line class="st1" x1="579.5" y1="195.4" x2="593.1" y2="200.1"/>
	</g>
	<g id="LINE_666_">
		<line class="st1" x1="542.8" y1="200.1" x2="556.4" y2="195.4"/>
	</g>
	<g id="LINE_667_">
		<line class="st1" x1="583.5" y1="200.1" x2="579.5" y2="195.4"/>
	</g>
	<g id="LINE_668_">
		<line class="st1" x1="552.5" y1="200.1" x2="556.4" y2="195.4"/>
	</g>
</g>
<g id="A-Elev">
	<g id="LINE_270_">
		<line class="st0" x1="544" y1="199.7" x2="591.9" y2="199.7"/>
	</g>
	<g id="LINE_271_">
		<line class="st0" x1="553.6" y1="196.4" x2="582.3" y2="196.4"/>
	</g>
	<g id="LINE_272_">
		<line class="st0" x1="548.8" y1="198" x2="587.1" y2="198"/>
	</g>
	<g id="LINE_273_">
		<line class="st0" x1="583.4" y1="198.8" x2="584.6" y2="199.7"/>
	</g>
	<g id="LINE_274_">
		<line class="st0" x1="582.2" y1="198" x2="583.4" y2="198.8"/>
	</g>
	<g id="LINE_275_">
		<line class="st0" x1="583.5" y1="196.8" x2="585.3" y2="198"/>
	</g>
	<g id="LINE_276_">
		<line class="st0" x1="587.7" y1="199.7" x2="588.3" y2="200.1"/>
	</g>
	<g id="LINE_277_">
		<line class="st0" x1="589.7" y1="198.9" x2="590.8" y2="199.7"/>
	</g>
	<g id="LINE_278_">
		<line class="st0" x1="561.1" y1="198" x2="561.1" y2="196.4"/>
	</g>
	<g id="LINE_279_">
		<line class="st0" x1="561.1" y1="200.1" x2="561.1" y2="199.7"/>
	</g>
	<g id="LINE_280_">
		<line class="st0" x1="577.1" y1="198" x2="577.1" y2="196.4"/>
	</g>
	<g id="LINE_281_">
		<line class="st0" x1="577.1" y1="200.1" x2="577.1" y2="199.7"/>
	</g>
	<g id="LINE_282_">
		<line class="st0" x1="565.5" y1="196.4" x2="565.5" y2="195.6"/>
	</g>
	<g id="LINE_283_">
		<line class="st0" x1="565.5" y1="199.7" x2="565.5" y2="198.8"/>
	</g>
	<g id="LINE_284_">
		<line class="st0" x1="581.6" y1="199.7" x2="581.6" y2="198.8"/>
	</g>
	<g id="LINE_285_">
		<line class="st0" x1="565.5" y1="195.6" x2="565.5" y2="195.4"/>
	</g>
	<g id="LINE_286_">
		<line class="st0" x1="565.5" y1="198.8" x2="565.5" y2="198"/>
	</g>
	<g id="LINE_287_">
		<line class="st0" x1="581.6" y1="198.8" x2="581.6" y2="198"/>
	</g>
	<g id="LINE_288_">
		<line class="st0" x1="553.9" y1="200.1" x2="553.9" y2="199.7"/>
	</g>
	<g id="LINE_289_">
		<line class="st0" x1="569.9" y1="198" x2="569.9" y2="196.4"/>
	</g>
	<g id="LINE_290_">
		<line class="st0" x1="569.9" y1="200.1" x2="569.9" y2="199.7"/>
	</g>
	<g id="LINE_291_">
		<line class="st0" x1="558.3" y1="196.4" x2="558.3" y2="195.6"/>
	</g>
	<g id="LINE_292_">
		<line class="st0" x1="558.3" y1="199.7" x2="558.3" y2="198.8"/>
	</g>
	<g id="LINE_293_">
		<line class="st0" x1="574.3" y1="196.4" x2="574.3" y2="195.6"/>
	</g>
	<g id="LINE_294_">
		<line class="st0" x1="574.3" y1="199.7" x2="574.3" y2="198.8"/>
	</g>
	<g id="LINE_295_">
		<line class="st0" x1="558.3" y1="195.6" x2="558.3" y2="195.4"/>
	</g>
	<g id="LINE_296_">
		<line class="st0" x1="558.3" y1="198.8" x2="558.3" y2="198"/>
	</g>
	<g id="LINE_297_">
		<line class="st0" x1="574.3" y1="195.6" x2="574.3" y2="195.4"/>
	</g>
	<g id="LINE_298_">
		<line class="st0" x1="574.3" y1="198.8" x2="574.3" y2="198"/>
	</g>
	<g id="LINE_299_">
		<line class="st0" x1="545.6" y1="200.1" x2="546.2" y2="199.7"/>
	</g>
	<g id="LINE_300_">
		<line class="st0" x1="554.1" y1="196.4" x2="554.7" y2="196"/>
	</g>
	<g id="LINE_301_">
		<line class="st0" x1="549.4" y1="199.7" x2="550.6" y2="198.8"/>
	</g>
	<g id="LINE_302_">
		<line class="st0" x1="550.6" y1="198.8" x2="551.7" y2="198"/>
	</g>
	<g id="LINE_303_">
		<line class="st0" x1="551.8" y1="200.1" x2="552.5" y2="199.7"/>
	</g>
	<g id="LINE_304_">
		<line class="st0" x1="544.3" y1="199.7" x2="544.5" y2="199.5"/>
	</g>
</g>
<g id="_x30_">
</g>
<g id="G-Anno-Ttlb">
</g>
<g id="A-Slab">
</g>
<g id="A-Flor-Hral">
</g>
<g id="A-Flor-Strs">
</g>
<g id="A-Roof">
</g>
<g id="A-Roof-Slab">
</g>
<g id="A-Wall">
</g>
<g id="S-Cols">
</g>
<g id="A-Door">
</g>
<g id="A-Glaz">
</g>
<g id="A-Flor-Case">
</g>
<g id="A-Flor-Appl">
</g>
<g id="P-Flor-FixtPfix">
</g>
<g id="text_title">
</g>
<g id="logo">
</g>
<g id="A-Anno-Titl">
</g>
<g id="G-Anno-Nplt">
</g>
<g id="A-Anno-Dims" class="st25">
	<g id="LINE_3659_" class="st26">
		<line class="st27" x1="266.8" y1="91.6" x2="266.8" y2="75.6"/>
	</g>
	<g id="LINE_3660_" class="st26">
		<line class="st27" x1="266.8" y1="75.6" x2="288.1" y2="75.6"/>
	</g>
	<g id="TEXT_9_" class="st26">
		<text transform="matrix(1 0 0 1 276.0827 72.2125)" class="st28 st29 st30">12</text>
	</g>
	<g id="TEXT_10_" class="st26">
		<text transform="matrix(1 0 0 1 248.2087 88.3837)" class="st28 st29 st30">3.5</text>
	</g>
	<g id="LINE_3661_" class="st26">
		<line class="st27" x1="456.3" y1="91.8" x2="456.3" y2="75.8"/>
	</g>
	<g id="LINE_3662_" class="st26">
		<line class="st27" x1="456.3" y1="75.8" x2="435.1" y2="75.8"/>
	</g>
	<g id="TEXT_11_" class="st26">
		<text transform="matrix(1 0 0 1 436.7542 72.426)" class="st28 st29 st30">12</text>
	</g>
	<g id="TEXT_12_" class="st26">
		<text transform="matrix(1 0 0 1 461.5413 88.5971)" class="st28 st29 st30">3.5</text>
	</g>
	<g id="LINE_3663_" class="st26">
		<line class="st27" x1="266.8" y1="124.5" x2="266.8" y2="108.5"/>
	</g>
	<g id="LINE_3664_" class="st26">
		<line class="st27" x1="266.8" y1="108.5" x2="288.1" y2="108.5"/>
	</g>
	<g id="TEXT_13_" class="st26">
		<text transform="matrix(1 0 0 1 276.0827 105.1366)" class="st28 st29 st30">12</text>
	</g>
	<g id="TEXT_14_" class="st26">
		<text transform="matrix(1 0 0 1 255.7253 121.3076)" class="st28 st29 st30">8</text>
	</g>
	<g id="LINE_3665_" class="st26">
		<line class="st27" x1="456.3" y1="124.7" x2="456.3" y2="108.7"/>
	</g>
	<g id="LINE_3666_" class="st26">
		<line class="st27" x1="456.3" y1="108.7" x2="435.1" y2="108.7"/>
	</g>
	<g id="TEXT_15_" class="st26">
		<text transform="matrix(1 0 0 1 436.7542 105.3499)" class="st28 st29 st30">12</text>
	</g>
	<g id="TEXT_16_" class="st26">
		<text transform="matrix(1 0 0 1 461.5413 121.5211)" class="st28 st29 st30">8</text>
	</g>
	<g id="LINE_3667_" class="st26">
		<line class="st27" x1="631.7" y1="154" x2="631.7" y2="138"/>
	</g>
	<g id="LINE_3668_" class="st26">
		<line class="st27" x1="631.7" y1="138" x2="652.9" y2="138"/>
	</g>
	<g id="TEXT_17_" class="st26">
		<text transform="matrix(1 0 0 1 640.9395 134.5948)" class="st28 st29 st30">12</text>
	</g>
	<g id="TEXT_18_" class="st26">
		<text transform="matrix(1 0 0 1 620.582 150.766)" class="st28 st29 st30">8</text>
	</g>
	<g id="LINE_3669_" class="st26">
		<line class="st27" x1="821.2" y1="154.2" x2="821.2" y2="138.2"/>
	</g>
	<g id="LINE_3670_" class="st26">
		<line class="st27" x1="821.2" y1="138.2" x2="800" y2="138.2"/>
	</g>
	<g id="TEXT_19_" class="st26">
		<text transform="matrix(1 0 0 1 801.611 134.8083)" class="st28 st29 st30">12</text>
	</g>
	<g id="TEXT_20_" class="st26">
		<text transform="matrix(1 0 0 1 826.398 150.9794)" class="st28 st29 st30">8</text>
	</g>
</g>
</svg>
