<?xml version="1.0" encoding="utf-8"?>
<!-- Generator: Adobe Illustrator 19.1.0, SVG Export Plug-In . SVG Version: 6.00 Build 0)  -->
<!DOCTYPE svg PUBLIC "-//W3C//DTD SVG 1.1//EN" "http://www.w3.org/Graphics/SVG/1.1/DTD/svg11.dtd">
<svg version="1.1" xmlns="http://www.w3.org/2000/svg" xmlns:xlink="http://www.w3.org/1999/xlink" x="0px" y="0px"
	 viewBox="0 0 886.5 395.7" style="enable-background:new 0 0 886.5 395.7;" xml:space="preserve">
<style type="text/css">
	.st0{fill:none;stroke:#000000;stroke-miterlimit:10;}
	.st1{fill:none;stroke:#000000;stroke-width:0.7087;stroke-linecap:round;stroke-linejoin:round;stroke-miterlimit:10;}
	.st2{fill:none;stroke:#7FFFFF;stroke-width:0.7087;stroke-linecap:round;stroke-linejoin:round;stroke-miterlimit:10;}
	.st3{fill:none;stroke:#FF7F00;stroke-width:0.5102;stroke-linecap:round;stroke-linejoin:round;stroke-miterlimit:10;}
	.st4{fill:none;stroke:#FFBF7F;stroke-width:0.7087;stroke-linecap:round;stroke-linejoin:round;stroke-miterlimit:10;}
	.st5{fill:none;stroke:#FFFF00;stroke-width:0.5102;stroke-linecap:round;stroke-linejoin:round;stroke-miterlimit:10;}
	
		.st6{fill:none;stroke:#FF7F7F;stroke-width:0.7087;stroke-linecap:round;stroke-linejoin:round;stroke-miterlimit:10;stroke-dasharray:2.3789,1.1894;}
	.st7{fill:none;stroke:#000000;stroke-width:0;stroke-linecap:round;stroke-linejoin:round;stroke-miterlimit:10;}
	.st8{fill-rule:evenodd;clip-rule:evenodd;fill:url(#);}
	.st9{fill:none;stroke:#00CCCC;stroke-width:0.9921;stroke-linecap:round;stroke-linejoin:round;stroke-miterlimit:10;}
	.st10{fill:none;stroke:#FF7F7F;stroke-width:0.7087;stroke-linecap:round;stroke-linejoin:round;stroke-miterlimit:10;}
	.st11{fill:none;stroke:#003FFF;stroke-width:0.7087;stroke-linecap:round;stroke-linejoin:round;stroke-miterlimit:10;}
	
		.st12{fill:none;stroke:#6600CC;stroke-width:0.5102;stroke-linecap:round;stroke-linejoin:round;stroke-miterlimit:10;stroke-dasharray:2.3789,1.1894;}
	.st13{fill:none;stroke:#6600CC;stroke-width:0.9921;stroke-linecap:round;stroke-linejoin:round;stroke-miterlimit:10;}
	
		.st14{fill:none;stroke:#FF7F00;stroke-width:0.5102;stroke-linecap:round;stroke-linejoin:round;stroke-miterlimit:10;stroke-dasharray:2.3789,1.1894;}
	.st15{fill:none;stroke:#CC6600;stroke-width:0.9921;stroke-linecap:round;stroke-linejoin:round;stroke-miterlimit:10;}
	
		.st16{fill:none;stroke:#7FFFFF;stroke-width:0.7087;stroke-linecap:round;stroke-linejoin:round;stroke-miterlimit:10;stroke-dasharray:2.3789,1.1894;}
	
		.st17{fill:none;stroke:#CC0000;stroke-width:0.5102;stroke-linecap:round;stroke-linejoin:round;stroke-miterlimit:10;stroke-dasharray:2.3789,1.1894;}
	.st18{fill:none;stroke:#CC0000;stroke-width:0.9921;stroke-linecap:round;stroke-linejoin:round;stroke-miterlimit:10;}
	.st19{fill-rule:evenodd;clip-rule:evenodd;fill:#5B5B5B;}
	.st20{fill:none;stroke:#66CC99;stroke-width:1.4173;stroke-linecap:round;stroke-linejoin:round;stroke-miterlimit:10;}
	.st21{fill:none;stroke:#00CC66;stroke-width:0.7087;stroke-linecap:round;stroke-linejoin:round;stroke-miterlimit:10;}
	.st22{fill:none;stroke:#CCCC00;stroke-width:0.9921;stroke-linecap:round;stroke-linejoin:round;stroke-miterlimit:10;}
	
		.st23{fill:none;stroke:#FFBF7F;stroke-width:0.7087;stroke-linecap:round;stroke-linejoin:round;stroke-miterlimit:10;stroke-dasharray:2.3789,1.1894;}
	.st24{fill:none;stroke:#7FBFFF;stroke-width:0.7087;stroke-linecap:round;stroke-linejoin:round;stroke-miterlimit:10;}
	.st25{display:none;}
	.st26{display:inline;}
	.st27{fill:none;stroke:#FF7FFF;stroke-width:0.7087;stroke-linecap:round;stroke-linejoin:round;stroke-miterlimit:10;}
	.st28{fill:#FF7FFF;}
</style>
<g id="A-Sect-Fine">
	<g id="LINE_1804_">
		<line class="st0" x1="423.8" y1="163.9" x2="423.8" y2="120.2"/>
	</g>
	<g id="LINE_1805_">
		<line class="st0" x1="423.8" y1="183.6" x2="423.8" y2="167.8"/>
	</g>
	<g id="LINE_1806_">
		<line class="st0" x1="535.6" y1="161.4" x2="535.6" y2="132.9"/>
	</g>
	<g id="LINE_1807_">
		<line class="st0" x1="559.4" y1="161.4" x2="559.4" y2="132.9"/>
	</g>
	<g id="LINE_1808_">
		<line class="st0" x1="671.2" y1="183.6" x2="671.2" y2="167.8"/>
	</g>
	<g id="LINE_1809_">
		<line class="st0" x1="671.2" y1="163.9" x2="671.2" y2="120.2"/>
	</g>
	<g id="LINE_1810_">
		<line class="st0" x1="333.8" y1="247" x2="333.8" y2="218.5"/>
	</g>
	<g id="LINE_1811_">
		<line class="st0" x1="390.9" y1="247" x2="390.9" y2="218.5"/>
	</g>
	<g id="LINE_1812_">
		<line class="st0" x1="456" y1="247" x2="456" y2="218.5"/>
	</g>
	<g id="LINE_1813_">
		<line class="st0" x1="503.9" y1="281.9" x2="503.9" y2="216.9"/>
	</g>
	<g id="LINE_1814_">
		<line class="st0" x1="535.6" y1="281.9" x2="535.6" y2="216.9"/>
	</g>
	<g id="LINE_1815_">
		<line class="st0" x1="542.2" y1="266.1" x2="542.2" y2="218.5"/>
	</g>
	<g id="LINE_1816_">
		<line class="st0" x1="554.9" y1="266.1" x2="554.9" y2="218.5"/>
	</g>
	<g id="LINE_1817_">
		<line class="st0" x1="695" y1="247" x2="695" y2="218.5"/>
	</g>
	<g id="LINE_1818_">
		<line class="st0" x1="714.1" y1="247" x2="714.1" y2="218.5"/>
	</g>
	<g id="LINE_1819_">
		<line class="st0" x1="823.5" y1="281.9" x2="823.5" y2="204.8"/>
	</g>
	<g id="LINE_1820_">
		<line class="st0" x1="66.6" y1="291.5" x2="66.6" y2="196.3"/>
	</g>
	<g id="LINE_1821_">
		<line class="st0" x1="90.4" y1="291.5" x2="90.4" y2="215.3"/>
	</g>
	<g id="LINE_1822_">
		<line class="st0" x1="176" y1="291.5" x2="176" y2="215.3"/>
	</g>
	<g id="LINE_1823_">
		<line class="st0" x1="185.9" y1="291.5" x2="185.9" y2="215.3"/>
	</g>
	<g id="LINE_1824_">
		<line class="st0" x1="271.6" y1="291.5" x2="271.6" y2="215.3"/>
	</g>
	<g id="LINE_1825_">
		<line class="st0" x1="295" y1="291.5" x2="295" y2="196.3"/>
	</g>
	<g id="LINE_1826_">
		<line class="st0" x1="535.6" y1="161.4" x2="559.4" y2="161.4"/>
	</g>
	<g id="LINE_1827_">
		<line class="st0" x1="535.6" y1="132.9" x2="559.4" y2="132.9"/>
	</g>
	<g id="LINE_1828_">
		<line class="st0" x1="295" y1="281.9" x2="433.4" y2="281.9"/>
	</g>
	<g id="LINE_1829_">
		<line class="st0" x1="333.8" y1="247" x2="390.9" y2="247"/>
	</g>
	<g id="LINE_1830_">
		<line class="st0" x1="333.8" y1="218.5" x2="390.9" y2="218.5"/>
	</g>
	<g id="LINE_1831_">
		<line class="st0" x1="438.1" y1="247" x2="456" y2="247"/>
	</g>
	<g id="LINE_1832_">
		<line class="st0" x1="438.1" y1="218.5" x2="456" y2="218.5"/>
	</g>
	<g id="LINE_1833_">
		<line class="st0" x1="503.9" y1="216.9" x2="506.3" y2="216.9"/>
	</g>
	<g id="LINE_1834_">
		<line class="st0" x1="511.1" y1="216.9" x2="535.6" y2="216.9"/>
	</g>
	<g id="LINE_1835_">
		<line class="st0" x1="661.7" y1="281.9" x2="823.5" y2="281.9"/>
	</g>
	<g id="LINE_1836_">
		<line class="st0" x1="542.2" y1="266.1" x2="554.9" y2="266.1"/>
	</g>
	<g id="LINE_1837_">
		<line class="st0" x1="542.2" y1="218.5" x2="554.9" y2="218.5"/>
	</g>
	<g id="LINE_1838_">
		<line class="st0" x1="695" y1="247" x2="714.1" y2="247"/>
	</g>
	<g id="LINE_1839_">
		<line class="st0" x1="695" y1="218.5" x2="714.1" y2="218.5"/>
	</g>
	<g id="LINE_1840_">
		<line class="st0" x1="66.6" y1="291.5" x2="90.4" y2="291.5"/>
	</g>
	<g id="LINE_1841_">
		<line class="st0" x1="90.4" y1="215.3" x2="176" y2="215.3"/>
	</g>
	<g id="LINE_1842_">
		<line class="st0" x1="176" y1="291.5" x2="185.9" y2="291.5"/>
	</g>
	<g id="LINE_1843_">
		<line class="st0" x1="185.9" y1="215.3" x2="271.6" y2="215.3"/>
	</g>
	<g id="LINE_1844_">
		<line class="st0" x1="271.6" y1="291.5" x2="295" y2="291.5"/>
	</g>
</g>
<g id="A-Sect-Thin">
	<g id="LINE_1846_">
		<line class="st1" x1="411.1" y1="123.9" x2="411.1" y2="120.7"/>
	</g>
	<g id="LINE_1847_">
		<line class="st1" x1="547.5" y1="85.3" x2="547.5" y2="80.9"/>
	</g>
	<g id="LINE_1848_">
		<line class="st1" x1="683.9" y1="123.9" x2="683.9" y2="120.7"/>
	</g>
	<g id="LINE_1849_">
		<line class="st1" x1="433.4" y1="289.9" x2="433.4" y2="210.6"/>
	</g>
	<g id="LINE_1850_">
		<line class="st1" x1="438.1" y1="281.9" x2="438.1" y2="210.6"/>
	</g>
	<g id="LINE_1851_">
		<line class="st1" x1="657" y1="281.9" x2="657" y2="210.6"/>
	</g>
	<g id="LINE_1852_">
		<line class="st1" x1="661.7" y1="289.9" x2="661.7" y2="210.6"/>
	</g>
	<g id="LINE_1853_">
		<line class="st1" x1="584" y1="281.9" x2="584" y2="210.6"/>
	</g>
	<g id="LINE_1854_">
		<line class="st1" x1="588.8" y1="281.9" x2="588.8" y2="210.6"/>
	</g>
	<g id="LINE_1855_">
		<line class="st1" x1="506.3" y1="281.9" x2="506.3" y2="210.6"/>
	</g>
	<g id="LINE_1856_">
		<line class="st1" x1="511.1" y1="281.9" x2="511.1" y2="210.6"/>
	</g>
	<g id="LINE_1857_">
		<line class="st1" x1="823.5" y1="291.5" x2="823.5" y2="281.9"/>
	</g>
	<g id="LINE_1858_">
		<line class="st1" x1="180.8" y1="120.2" x2="180.8" y2="117"/>
	</g>
	<g id="LINE_1859_">
		<line class="st1" x1="307.7" y1="204.8" x2="307.7" y2="201.6"/>
	</g>
	<g id="LINE_1860_">
		<line class="st1" x1="53.9" y1="204.8" x2="53.9" y2="201.6"/>
	</g>
	<g id="LINE_1861_">
		<line class="st1" x1="190.7" y1="123.6" x2="190.7" y2="122.7"/>
	</g>
	<g id="LINE_1862_">
		<line class="st1" x1="842.5" y1="204.8" x2="842.5" y2="122.7"/>
	</g>
	<g id="LINE_1863_">
		<line class="st1" x1="414.3" y1="210.6" x2="414.3" y2="183.6"/>
	</g>
	<g id="LINE_1864_">
		<line class="st1" x1="680.8" y1="210.6" x2="680.8" y2="183.6"/>
	</g>
	<g id="LINE_1865_">
		<line class="st1" x1="433.4" y1="289.9" x2="661.7" y2="289.9"/>
	</g>
	<g id="LINE_1866_">
		<line class="st1" x1="433.4" y1="281.9" x2="661.7" y2="281.9"/>
	</g>
	<g id="LINE_1867_">
		<line class="st1" x1="295" y1="291.5" x2="823.5" y2="291.5"/>
	</g>
	<g id="LINE_1868_">
		<line class="st1" x1="295" y1="281.9" x2="433.4" y2="281.9"/>
	</g>
	<g id="LINE_1869_">
		<line class="st1" x1="190.7" y1="122.7" x2="411.1" y2="122.7"/>
	</g>
	<g id="LINE_1870_">
		<line class="st1" x1="415.2" y1="122.7" x2="423.8" y2="122.7"/>
	</g>
	<g id="LINE_1871_">
		<line class="st1" x1="295" y1="209" x2="414.3" y2="209"/>
	</g>
	<g id="LINE_1872_">
		<line class="st1" x1="295" y1="206.3" x2="414.3" y2="206.3"/>
	</g>
	<g id="LINE_1873_">
		<line class="st1" x1="671.2" y1="122.7" x2="679.9" y2="122.7"/>
	</g>
	<g id="LINE_1874_">
		<line class="st1" x1="683.9" y1="122.7" x2="842.5" y2="122.7"/>
	</g>
	<g id="LINE_1875_">
		<line class="st1" x1="680.8" y1="204.8" x2="842.5" y2="204.8"/>
	</g>
	<g id="LINE_1876_">
		<line class="st1" x1="680.8" y1="202.1" x2="842.5" y2="202.1"/>
	</g>
	<g id="LINE_1877_">
		<line class="st1" x1="414.3" y1="210.6" x2="680.8" y2="210.6"/>
	</g>
	<g id="LINE_1878_">
		<line class="st1" x1="414.3" y1="183.6" x2="680.8" y2="183.6"/>
	</g>
	<g id="LINE_1879_">
		<line class="st1" x1="414.3" y1="207.4" x2="680.8" y2="207.4"/>
	</g>
	<g id="LINE_1880_">
		<line class="st1" x1="411.1" y1="123.9" x2="547.5" y2="84.1"/>
	</g>
	<g id="LINE_1881_">
		<line class="st1" x1="411.1" y1="120.7" x2="547.5" y2="80.9"/>
	</g>
	<g id="LINE_1882_">
		<line class="st1" x1="547.5" y1="84.1" x2="683.9" y2="123.9"/>
	</g>
	<g id="LINE_1883_">
		<line class="st1" x1="547.5" y1="80.9" x2="683.9" y2="120.7"/>
	</g>
	<g id="LINE_1884_">
		<line class="st1" x1="180.8" y1="120.2" x2="307.7" y2="204.8"/>
	</g>
	<g id="LINE_1885_">
		<line class="st1" x1="180.8" y1="117" x2="307.7" y2="201.6"/>
	</g>
	<g id="LINE_1886_">
		<line class="st1" x1="53.9" y1="204.8" x2="180.8" y2="120.2"/>
	</g>
	<g id="LINE_1887_">
		<line class="st1" x1="53.9" y1="201.6" x2="180.8" y2="117"/>
	</g>
	<g id="LINE_1888_">
		<line class="st1" x1="409.4" y1="173.6" x2="547.5" y2="81.5"/>
	</g>
	<g id="LINE_1889_">
		<line class="st1" x1="411.1" y1="176.2" x2="547.5" y2="85.3"/>
	</g>
	<g id="LINE_1890_">
		<line class="st1" x1="547.5" y1="85.3" x2="683.9" y2="176.2"/>
	</g>
	<g id="LINE_1891_">
		<line class="st1" x1="547.5" y1="81.5" x2="685.7" y2="173.6"/>
	</g>
	<g id="LINE_1892_">
		<line class="st1" x1="411.1" y1="176.2" x2="409.4" y2="173.6"/>
	</g>
	<g id="LINE_1893_">
		<line class="st1" x1="683.9" y1="176.2" x2="685.7" y2="173.6"/>
	</g>
	<g id="LINE_1894_">
		<line class="st1" x1="537.2" y1="159.8" x2="537.2" y2="134.4"/>
	</g>
	<g id="LINE_1895_">
		<line class="st1" x1="557.8" y1="159.8" x2="557.8" y2="134.4"/>
	</g>
	<g id="LINE_1896_">
		<line class="st1" x1="538" y1="159" x2="538" y2="135.2"/>
	</g>
	<g id="LINE_1897_">
		<line class="st1" x1="557.1" y1="159" x2="557.1" y2="135.2"/>
	</g>
	<g id="LINE_1898_">
		<line class="st1" x1="335.4" y1="245.5" x2="335.4" y2="220.1"/>
	</g>
	<g id="LINE_1899_">
		<line class="st1" x1="389.3" y1="245.5" x2="389.3" y2="220.1"/>
	</g>
	<g id="LINE_1900_">
		<line class="st1" x1="336.2" y1="244.7" x2="336.2" y2="220.9"/>
	</g>
	<g id="LINE_1901_">
		<line class="st1" x1="362" y1="245.5" x2="362" y2="220.1"/>
	</g>
	<g id="LINE_1902_">
		<line class="st1" x1="362.8" y1="244.7" x2="362.8" y2="220.9"/>
	</g>
	<g id="LINE_1903_">
		<line class="st1" x1="388.5" y1="244.7" x2="388.5" y2="220.9"/>
	</g>
	<g id="LINE_1904_">
		<line class="st1" x1="696.6" y1="245.5" x2="696.6" y2="220.1"/>
	</g>
	<g id="LINE_1905_">
		<line class="st1" x1="712.5" y1="245.5" x2="712.5" y2="220.1"/>
	</g>
	<g id="LINE_1906_">
		<line class="st1" x1="697.4" y1="232.4" x2="697.4" y2="220.9"/>
	</g>
	<g id="LINE_1907_">
		<line class="st1" x1="711.7" y1="232.4" x2="711.7" y2="220.9"/>
	</g>
	<g id="LINE_1908_">
		<line class="st1" x1="697.4" y1="244.7" x2="697.4" y2="233.2"/>
	</g>
	<g id="LINE_1909_">
		<line class="st1" x1="711.7" y1="244.7" x2="711.7" y2="233.2"/>
	</g>
	<g id="LINE_1910_">
		<line class="st1" x1="438.5" y1="245.5" x2="438.5" y2="220.1"/>
	</g>
	<g id="LINE_1911_">
		<line class="st1" x1="454.4" y1="245.5" x2="454.4" y2="220.1"/>
	</g>
	<g id="LINE_1912_">
		<line class="st1" x1="439.3" y1="232.4" x2="439.3" y2="220.9"/>
	</g>
	<g id="LINE_1913_">
		<line class="st1" x1="453.6" y1="232.4" x2="453.6" y2="220.9"/>
	</g>
	<g id="LINE_1914_">
		<line class="st1" x1="439.3" y1="244.7" x2="439.3" y2="233.2"/>
	</g>
	<g id="LINE_1915_">
		<line class="st1" x1="453.6" y1="244.7" x2="453.6" y2="233.2"/>
	</g>
	<g id="LINE_1916_">
		<line class="st1" x1="543.8" y1="264.5" x2="543.8" y2="220.1"/>
	</g>
	<g id="LINE_1917_">
		<line class="st1" x1="553.3" y1="264.5" x2="553.3" y2="220.1"/>
	</g>
	<g id="LINE_1918_">
		<line class="st1" x1="544.6" y1="263.7" x2="544.6" y2="220.9"/>
	</g>
	<g id="LINE_1919_">
		<line class="st1" x1="552.5" y1="263.7" x2="552.5" y2="220.9"/>
	</g>
	<g id="LINE_1920_">
		<line class="st1" x1="537.2" y1="134.4" x2="557.8" y2="134.4"/>
	</g>
	<g id="LINE_1921_">
		<line class="st1" x1="537.2" y1="159.8" x2="557.8" y2="159.8"/>
	</g>
	<g id="LINE_1922_">
		<line class="st1" x1="538" y1="135.2" x2="557.1" y2="135.2"/>
	</g>
	<g id="LINE_1923_">
		<line class="st1" x1="538" y1="159" x2="557.1" y2="159"/>
	</g>
	<g id="LINE_1924_">
		<line class="st1" x1="335.4" y1="220.1" x2="389.3" y2="220.1"/>
	</g>
	<g id="LINE_1925_">
		<line class="st1" x1="335.4" y1="245.5" x2="389.3" y2="245.5"/>
	</g>
	<g id="LINE_1926_">
		<line class="st1" x1="336.2" y1="220.9" x2="362" y2="220.9"/>
	</g>
	<g id="LINE_1927_">
		<line class="st1" x1="336.2" y1="244.7" x2="362" y2="244.7"/>
	</g>
	<g id="LINE_1928_">
		<line class="st1" x1="362.8" y1="220.9" x2="388.5" y2="220.9"/>
	</g>
	<g id="LINE_1929_">
		<line class="st1" x1="362.8" y1="244.7" x2="388.5" y2="244.7"/>
	</g>
	<g id="LINE_1930_">
		<line class="st1" x1="696.6" y1="220.1" x2="712.5" y2="220.1"/>
	</g>
	<g id="LINE_1931_">
		<line class="st1" x1="696.6" y1="245.5" x2="712.5" y2="245.5"/>
	</g>
	<g id="LINE_1932_">
		<line class="st1" x1="696.6" y1="233.2" x2="712.5" y2="233.2"/>
	</g>
	<g id="LINE_1933_">
		<line class="st1" x1="697.4" y1="220.9" x2="711.7" y2="220.9"/>
	</g>
	<g id="LINE_1934_">
		<line class="st1" x1="697.4" y1="232.4" x2="711.7" y2="232.4"/>
	</g>
	<g id="LINE_1935_">
		<line class="st1" x1="697.4" y1="244.7" x2="711.7" y2="244.7"/>
	</g>
	<g id="LINE_1936_">
		<line class="st1" x1="438.5" y1="220.1" x2="454.4" y2="220.1"/>
	</g>
	<g id="LINE_1937_">
		<line class="st1" x1="438.5" y1="245.5" x2="454.4" y2="245.5"/>
	</g>
	<g id="LINE_1938_">
		<line class="st1" x1="439.3" y1="220.9" x2="453.6" y2="220.9"/>
	</g>
	<g id="LINE_1939_">
		<line class="st1" x1="438.5" y1="232.4" x2="454.4" y2="232.4"/>
	</g>
	<g id="LINE_1940_">
		<line class="st1" x1="439.3" y1="233.2" x2="453.6" y2="233.2"/>
	</g>
	<g id="LINE_1941_">
		<line class="st1" x1="439.3" y1="244.7" x2="453.6" y2="244.7"/>
	</g>
	<g id="LINE_1942_">
		<line class="st1" x1="543.8" y1="264.5" x2="553.3" y2="264.5"/>
	</g>
	<g id="LINE_1943_">
		<line class="st1" x1="543.8" y1="220.1" x2="553.3" y2="220.1"/>
	</g>
	<g id="LINE_1944_">
		<line class="st1" x1="544.6" y1="263.7" x2="552.5" y2="263.7"/>
	</g>
	<g id="LINE_1945_">
		<line class="st1" x1="544.6" y1="220.9" x2="552.5" y2="220.9"/>
	</g>
	<g id="LINE_1946_">
		<line class="st1" x1="505.5" y1="281.9" x2="505.5" y2="218.5"/>
	</g>
	<g id="LINE_1947_">
		<line class="st1" x1="534.1" y1="281.9" x2="534.1" y2="218.5"/>
	</g>
	<g id="LINE_1948_">
		<line class="st1" x1="506" y1="281.9" x2="506" y2="219"/>
	</g>
	<g id="LINE_1949_">
		<line class="st1" x1="533.6" y1="281.9" x2="533.6" y2="219"/>
	</g>
	<g id="LINE_1950_">
		<line class="st1" x1="505.5" y1="218.5" x2="506.3" y2="218.5"/>
	</g>
	<g id="LINE_1951_">
		<line class="st1" x1="511.1" y1="218.5" x2="534.1" y2="218.5"/>
	</g>
	<g id="LINE_1952_">
		<line class="st1" x1="506" y1="219" x2="506.3" y2="219"/>
	</g>
	<g id="LINE_1953_">
		<line class="st1" x1="511.1" y1="219" x2="533.6" y2="219"/>
	</g>
	<g id="LINE_1954_">
		<line class="st1" x1="530.9" y1="253.4" x2="530.9" y2="221.7"/>
	</g>
	<g id="LINE_1955_">
		<line class="st1" x1="511.1" y1="221.7" x2="530.9" y2="221.7"/>
	</g>
	<g id="LINE_1956_">
		<line class="st1" x1="511.1" y1="253.4" x2="530.9" y2="253.4"/>
	</g>
</g>
<g id="A-Elev">
	<g id="LINE_1962_">
		<line class="st0" x1="90.4" y1="291.5" x2="176" y2="291.5"/>
	</g>
	<g id="LINE_1963_">
		<line class="st0" x1="90.4" y1="276.2" x2="176" y2="276.2"/>
	</g>
	<g id="LINE_1964_">
		<line class="st0" x1="90.4" y1="261" x2="176" y2="261"/>
	</g>
	<g id="LINE_1965_">
		<line class="st0" x1="90.4" y1="245.8" x2="176" y2="245.8"/>
	</g>
	<g id="LINE_1966_">
		<line class="st0" x1="90.4" y1="230.6" x2="176" y2="230.6"/>
	</g>
	<g id="LINE_1967_">
		<line class="st0" x1="185.9" y1="291.5" x2="271.6" y2="291.5"/>
	</g>
	<g id="LINE_1968_">
		<line class="st0" x1="185.9" y1="276.2" x2="271.6" y2="276.2"/>
	</g>
	<g id="LINE_1969_">
		<line class="st0" x1="185.9" y1="261" x2="271.6" y2="261"/>
	</g>
	<g id="LINE_1970_">
		<line class="st0" x1="185.9" y1="245.8" x2="271.6" y2="245.8"/>
	</g>
	<g id="LINE_1971_">
		<line class="st0" x1="185.9" y1="230.6" x2="271.6" y2="230.6"/>
	</g>
	<g id="LINE_1974_">
		<line class="st0" x1="506.3" y1="251.1" x2="506" y2="250.8"/>
	</g>
	<g id="LINE_1976_">
		<line class="st0" x1="506" y1="249.7" x2="506.3" y2="249.3"/>
	</g>
</g>
<g id="_x30_">
</g>
<g id="G-Anno-Ttlb">
</g>
<g id="A-Slab">
</g>
<g id="A-Flor-Hral">
</g>
<g id="A-Flor-Strs">
</g>
<g id="A-Roof">
</g>
<g id="A-Roof-Slab">
</g>
<g id="A-Wall">
</g>
<g id="S-Cols">
</g>
<g id="A-Door">
</g>
<g id="A-Glaz">
</g>
<g id="A-Flor-Case">
</g>
<g id="A-Flor-Appl">
</g>
<g id="P-Flor-FixtPfix">
</g>
<g id="text_title">
</g>
<g id="logo">
</g>
<g id="A-Anno-Titl">
</g>
<g id="G-Anno-Nplt">
</g>
<g id="A-Anno-Dims" class="st25">
</g>
</svg>
