<?xml version="1.0" encoding="utf-8"?>
<!-- Generator: Adobe Illustrator 19.1.0, SVG Export Plug-In . SVG Version: 6.00 Build 0)  -->
<!DOCTYPE svg PUBLIC "-//W3C//DTD SVG 1.1//EN" "http://www.w3.org/Graphics/SVG/1.1/DTD/svg11.dtd">
<svg version="1.1" xmlns="http://www.w3.org/2000/svg" xmlns:xlink="http://www.w3.org/1999/xlink" x="0px" y="0px"
	 viewBox="0 0 750 396.1" style="enable-background:new 0 0 750 396.1;" xml:space="preserve">
<style type="text/css">
	.st0{fill:none;stroke:#000000;stroke-miterlimit:10;}
	.st1{fill:none;stroke:#000000;stroke-width:0.7087;stroke-linecap:round;stroke-linejoin:round;stroke-miterlimit:10;}
	.st2{fill:none;stroke:#7FFFFF;stroke-width:0.7087;stroke-linecap:round;stroke-linejoin:round;stroke-miterlimit:10;}
	.st3{fill:none;stroke:#FF7F00;stroke-width:0.5102;stroke-linecap:round;stroke-linejoin:round;stroke-miterlimit:10;}
	.st4{fill:none;stroke:#FFBF7F;stroke-width:0.7087;stroke-linecap:round;stroke-linejoin:round;stroke-miterlimit:10;}
	.st5{fill:none;stroke:#FFFF00;stroke-width:0.5102;stroke-linecap:round;stroke-linejoin:round;stroke-miterlimit:10;}
	
		.st6{fill:none;stroke:#FF7F7F;stroke-width:0.7087;stroke-linecap:round;stroke-linejoin:round;stroke-miterlimit:10;stroke-dasharray:2.3789,1.1894;}
	.st7{fill:none;stroke:#000000;stroke-width:0;stroke-linecap:round;stroke-linejoin:round;stroke-miterlimit:10;}
	.st8{fill-rule:evenodd;clip-rule:evenodd;fill:url(#);}
	.st9{fill:none;stroke:#00CCCC;stroke-width:0.9921;stroke-linecap:round;stroke-linejoin:round;stroke-miterlimit:10;}
	.st10{fill:none;stroke:#FF7F7F;stroke-width:0.7087;stroke-linecap:round;stroke-linejoin:round;stroke-miterlimit:10;}
	.st11{fill:none;stroke:#003FFF;stroke-width:0.7087;stroke-linecap:round;stroke-linejoin:round;stroke-miterlimit:10;}
	
		.st12{fill:none;stroke:#6600CC;stroke-width:0.5102;stroke-linecap:round;stroke-linejoin:round;stroke-miterlimit:10;stroke-dasharray:2.3789,1.1894;}
	.st13{fill:none;stroke:#6600CC;stroke-width:0.9921;stroke-linecap:round;stroke-linejoin:round;stroke-miterlimit:10;}
	
		.st14{fill:none;stroke:#FF7F00;stroke-width:0.5102;stroke-linecap:round;stroke-linejoin:round;stroke-miterlimit:10;stroke-dasharray:2.3789,1.1894;}
	.st15{fill:none;stroke:#CC6600;stroke-width:0.9921;stroke-linecap:round;stroke-linejoin:round;stroke-miterlimit:10;}
	
		.st16{fill:none;stroke:#7FFFFF;stroke-width:0.7087;stroke-linecap:round;stroke-linejoin:round;stroke-miterlimit:10;stroke-dasharray:2.3789,1.1894;}
	
		.st17{fill:none;stroke:#CC0000;stroke-width:0.5102;stroke-linecap:round;stroke-linejoin:round;stroke-miterlimit:10;stroke-dasharray:2.3789,1.1894;}
	.st18{fill:none;stroke:#CC0000;stroke-width:0.9921;stroke-linecap:round;stroke-linejoin:round;stroke-miterlimit:10;}
	.st19{fill-rule:evenodd;clip-rule:evenodd;fill:#5B5B5B;}
	.st20{fill:none;stroke:#66CC99;stroke-width:1.4173;stroke-linecap:round;stroke-linejoin:round;stroke-miterlimit:10;}
	.st21{fill:none;stroke:#00CC66;stroke-width:0.7087;stroke-linecap:round;stroke-linejoin:round;stroke-miterlimit:10;}
	.st22{fill:none;stroke:#CCCC00;stroke-width:0.9921;stroke-linecap:round;stroke-linejoin:round;stroke-miterlimit:10;}
	
		.st23{fill:none;stroke:#FFBF7F;stroke-width:0.7087;stroke-linecap:round;stroke-linejoin:round;stroke-miterlimit:10;stroke-dasharray:2.3789,1.1894;}
	.st24{fill:none;stroke:#7FBFFF;stroke-width:0.7087;stroke-linecap:round;stroke-linejoin:round;stroke-miterlimit:10;}
	.st25{display:none;}
	.st26{display:inline;}
	.st27{fill:none;stroke:#FF7FFF;stroke-width:0.7087;stroke-linecap:round;stroke-linejoin:round;stroke-miterlimit:10;}
	.st28{fill:#FF7FFF;}
</style>
<g id="A-Sect-Fine">
	<g id="LINE_2006_">
		<line class="st0" x1="133.8" y1="281.9" x2="133.8" y2="176.2"/>
	</g>
	<g id="LINE_2007_">
		<line class="st0" x1="138.6" y1="255" x2="138.6" y2="207.4"/>
	</g>
	<g id="LINE_2008_">
		<line class="st0" x1="138.6" y1="196.3" x2="138.6" y2="176.2"/>
	</g>
	<g id="LINE_2009_">
		<line class="st0" x1="153.2" y1="196.3" x2="153.2" y2="176.2"/>
	</g>
	<g id="LINE_2010_">
		<line class="st0" x1="153.2" y1="255" x2="153.2" y2="207.4"/>
	</g>
	<g id="LINE_2011_">
		<line class="st0" x1="154.9" y1="255" x2="154.9" y2="207.4"/>
	</g>
	<g id="LINE_2012_">
		<line class="st0" x1="154.9" y1="196.3" x2="154.9" y2="176.2"/>
	</g>
	<g id="LINE_2013_">
		<line class="st0" x1="169.5" y1="255" x2="169.5" y2="207.4"/>
	</g>
	<g id="LINE_2014_">
		<line class="st0" x1="171.1" y1="255" x2="171.1" y2="207.4"/>
	</g>
	<g id="LINE_2015_">
		<line class="st0" x1="171.9" y1="291.5" x2="171.9" y2="204.8"/>
	</g>
	<g id="LINE_2016_">
		<line class="st0" x1="269.8" y1="281.9" x2="269.8" y2="216.9"/>
	</g>
	<g id="LINE_2017_">
		<line class="st0" x1="301.5" y1="281.9" x2="301.5" y2="216.9"/>
	</g>
	<g id="LINE_2018_">
		<line class="st0" x1="666.7" y1="291.5" x2="666.7" y2="204.8"/>
	</g>
	<g id="LINE_2019_">
		<line class="st0" x1="138.6" y1="255" x2="153.2" y2="255"/>
	</g>
	<g id="LINE_2020_">
		<line class="st0" x1="138.6" y1="207.4" x2="153.2" y2="207.4"/>
	</g>
	<g id="LINE_2021_">
		<line class="st0" x1="138.6" y1="196.3" x2="153.2" y2="196.3"/>
	</g>
	<g id="LINE_2022_">
		<line class="st0" x1="154.9" y1="255" x2="169.5" y2="255"/>
	</g>
	<g id="LINE_2023_">
		<line class="st0" x1="154.9" y1="207.4" x2="169.5" y2="207.4"/>
	</g>
	<g id="LINE_2024_">
		<line class="st0" x1="154.9" y1="196.3" x2="159.2" y2="196.3"/>
	</g>
	<g id="LINE_2025_">
		<line class="st0" x1="171.1" y1="255" x2="171.9" y2="255"/>
	</g>
	<g id="LINE_2026_">
		<line class="st0" x1="171.1" y1="207.4" x2="171.9" y2="207.4"/>
	</g>
	<g id="LINE_2027_">
		<line class="st0" x1="171.9" y1="291.5" x2="666.7" y2="291.5"/>
	</g>
	<g id="LINE_2028_">
		<line class="st0" x1="269.8" y1="216.9" x2="301.5" y2="216.9"/>
	</g>
	<g id="LINE_2029_">
		<line class="st0" x1="269.8" y1="281.9" x2="301.5" y2="281.9"/>
	</g>
</g>
<g id="A-Sect-Thin">
	<g id="LINE_1988_">
		<line class="st1" x1="235.3" y1="117" x2="235.3" y2="80.9"/>
	</g>
	<g id="LINE_1989_">
		<line class="st1" x1="470" y1="117" x2="470" y2="80.9"/>
	</g>
	<g id="LINE_1990_">
		<line class="st1" x1="29.1" y1="289.9" x2="29.1" y2="281.9"/>
	</g>
	<g id="LINE_1991_">
		<line class="st1" x1="105.2" y1="289.9" x2="105.2" y2="281.9"/>
	</g>
	<g id="LINE_1992_">
		<line class="st1" x1="133.8" y1="291.5" x2="133.8" y2="289.9"/>
	</g>
	<g id="LINE_1993_">
		<line class="st1" x1="159.2" y1="204.8" x2="159.2" y2="117"/>
	</g>
	<g id="LINE_1994_">
		<line class="st1" x1="679.3" y1="204.8" x2="679.3" y2="117"/>
	</g>
	<g id="LINE_1995_">
		<line class="st1" x1="121.1" y1="176.2" x2="121.1" y2="81.5"/>
	</g>
	<g id="LINE_1996_">
		<line class="st1" x1="235.3" y1="80.9" x2="470" y2="80.9"/>
	</g>
	<g id="LINE_1997_">
		<line class="st1" x1="29.1" y1="289.9" x2="171.9" y2="289.9"/>
	</g>
	<g id="LINE_1998_">
		<line class="st1" x1="29.1" y1="281.9" x2="171.9" y2="281.9"/>
	</g>
	<g id="LINE_1999_">
		<line class="st1" x1="133.8" y1="291.5" x2="171.9" y2="291.5"/>
	</g>
	<g id="LINE_2000_">
		<line class="st1" x1="159.2" y1="117" x2="679.3" y2="117"/>
	</g>
	<g id="LINE_2001_">
		<line class="st1" x1="159.2" y1="204.8" x2="679.3" y2="204.8"/>
	</g>
	<g id="LINE_2002_">
		<line class="st1" x1="159.2" y1="201.6" x2="679.3" y2="201.6"/>
	</g>
	<g id="LINE_2003_">
		<line class="st1" x1="121.1" y1="81.5" x2="235.3" y2="81.5"/>
	</g>
	<g id="LINE_2004_">
		<line class="st1" x1="121.1" y1="176.2" x2="159.2" y2="176.2"/>
	</g>
	<g id="LINE_2005_">
		<line class="st1" x1="121.1" y1="173.6" x2="159.2" y2="173.6"/>
	</g>
	<g id="LINE_2030_">
		<line class="st1" x1="138.8" y1="255" x2="138.8" y2="207.4"/>
	</g>
	<g id="LINE_2031_">
		<line class="st1" x1="139.5" y1="253.4" x2="139.5" y2="209"/>
	</g>
	<g id="LINE_2032_">
		<line class="st1" x1="152.8" y1="253.4" x2="152.8" y2="209"/>
	</g>
	<g id="LINE_2033_">
		<line class="st1" x1="140.6" y1="253.4" x2="140.6" y2="209"/>
	</g>
	<g id="LINE_2034_">
		<line class="st1" x1="140.9" y1="252.6" x2="140.9" y2="209.8"/>
	</g>
	<g id="LINE_2035_">
		<line class="st1" x1="171.3" y1="255" x2="171.3" y2="207.4"/>
	</g>
	<g id="LINE_2036_">
		<line class="st1" x1="155" y1="255" x2="155" y2="207.4"/>
	</g>
	<g id="LINE_2037_">
		<line class="st1" x1="155.7" y1="253.4" x2="155.7" y2="209"/>
	</g>
	<g id="LINE_2038_">
		<line class="st1" x1="169" y1="253.4" x2="169" y2="209"/>
	</g>
	<g id="LINE_2039_">
		<line class="st1" x1="156.8" y1="253.4" x2="156.8" y2="209"/>
	</g>
	<g id="LINE_2040_">
		<line class="st1" x1="157.1" y1="252.6" x2="157.1" y2="209.8"/>
	</g>
	<g id="LINE_2041_">
		<line class="st1" x1="138.8" y1="196.3" x2="138.8" y2="176.2"/>
	</g>
	<g id="LINE_2042_">
		<line class="st1" x1="139.5" y1="194.7" x2="139.5" y2="176.2"/>
	</g>
	<g id="LINE_2043_">
		<line class="st1" x1="152.8" y1="194.7" x2="152.8" y2="176.2"/>
	</g>
	<g id="LINE_2044_">
		<line class="st1" x1="140.6" y1="194.7" x2="140.6" y2="176.2"/>
	</g>
	<g id="LINE_2045_">
		<line class="st1" x1="140.9" y1="193.9" x2="140.9" y2="176.2"/>
	</g>
	<g id="LINE_2046_">
		<line class="st1" x1="155" y1="196.3" x2="155" y2="176.2"/>
	</g>
	<g id="LINE_2047_">
		<line class="st1" x1="155.7" y1="194.7" x2="155.7" y2="176.2"/>
	</g>
	<g id="LINE_2048_">
		<line class="st1" x1="156.8" y1="194.7" x2="156.8" y2="176.2"/>
	</g>
	<g id="LINE_2049_">
		<line class="st1" x1="157.1" y1="193.9" x2="157.1" y2="176.2"/>
	</g>
	<g id="LINE_2050_">
		<line class="st1" x1="139.5" y1="209" x2="152.8" y2="209"/>
	</g>
	<g id="LINE_2051_">
		<line class="st1" x1="139.5" y1="253.4" x2="152.8" y2="253.4"/>
	</g>
	<g id="LINE_2052_">
		<line class="st1" x1="140.9" y1="209.8" x2="152.8" y2="209.8"/>
	</g>
	<g id="LINE_2053_">
		<line class="st1" x1="140.9" y1="252.6" x2="152.8" y2="252.6"/>
	</g>
	<g id="LINE_2054_">
		<line class="st1" x1="155.7" y1="209" x2="169" y2="209"/>
	</g>
	<g id="LINE_2055_">
		<line class="st1" x1="155.7" y1="253.4" x2="169" y2="253.4"/>
	</g>
	<g id="LINE_2056_">
		<line class="st1" x1="157.1" y1="209.8" x2="169" y2="209.8"/>
	</g>
	<g id="LINE_2057_">
		<line class="st1" x1="157.1" y1="252.6" x2="169" y2="252.6"/>
	</g>
	<g id="LINE_2058_">
		<line class="st1" x1="139.5" y1="194.7" x2="152.8" y2="194.7"/>
	</g>
	<g id="LINE_2059_">
		<line class="st1" x1="140.9" y1="193.9" x2="152.8" y2="193.9"/>
	</g>
	<g id="LINE_2060_">
		<line class="st1" x1="155.7" y1="194.7" x2="159.2" y2="194.7"/>
	</g>
	<g id="LINE_2061_">
		<line class="st1" x1="157.1" y1="193.9" x2="159.2" y2="193.9"/>
	</g>
	<g id="LINE_2062_">
		<line class="st1" x1="141.5" y1="252.6" x2="141.5" y2="209.8"/>
	</g>
	<g id="LINE_2063_">
		<line class="st1" x1="157.8" y1="252.6" x2="157.8" y2="209.8"/>
	</g>
	<g id="LINE_2064_">
		<line class="st1" x1="141.5" y1="193.9" x2="141.5" y2="176.2"/>
	</g>
	<g id="LINE_2065_">
		<line class="st1" x1="157.8" y1="193.9" x2="157.8" y2="176.2"/>
	</g>
	<g id="LINE_2066_">
		<line class="st1" x1="271.4" y1="281.9" x2="271.4" y2="218.5"/>
	</g>
	<g id="LINE_2067_">
		<line class="st1" x1="299.9" y1="281.9" x2="299.9" y2="218.5"/>
	</g>
	<g id="LINE_2068_">
		<line class="st1" x1="271.9" y1="281.9" x2="271.9" y2="219"/>
	</g>
	<g id="LINE_2069_">
		<line class="st1" x1="299.4" y1="281.9" x2="299.4" y2="219"/>
	</g>
	<g id="LINE_2070_">
		<line class="st1" x1="271.4" y1="218.5" x2="299.9" y2="218.5"/>
	</g>
	<g id="LINE_2071_">
		<line class="st1" x1="271.9" y1="219" x2="299.4" y2="219"/>
	</g>
</g>
<g id="A-Elev">
</g>
<g id="_x30_">
</g>
<g id="G-Anno-Ttlb">
</g>
<g id="A-Slab">
</g>
<g id="A-Flor-Hral">
</g>
<g id="A-Flor-Strs">
</g>
<g id="A-Roof">
</g>
<g id="A-Roof-Slab">
</g>
<g id="A-Wall">
</g>
<g id="S-Cols">
</g>
<g id="A-Door">
</g>
<g id="A-Glaz">
</g>
<g id="A-Flor-Case">
</g>
<g id="A-Flor-Appl">
</g>
<g id="P-Flor-FixtPfix">
</g>
<g id="text_title">
</g>
<g id="logo">
</g>
<g id="A-Anno-Titl">
</g>
<g id="G-Anno-Nplt">
</g>
<g id="A-Anno-Dims" class="st25">
</g>
</svg>
